<svg width="82" height="82" viewBox="0 0 82 82" fill="none" xmlns="http://www.w3.org/2000/svg">
<path d="M1.03012 10.2248C4.4139 10.9013 7.03661 13.5241 7.71311 16.9078C7.83227 17.5075 8.35758 17.938 8.96873 17.938C9.57989 17.938 10.1052 17.5075 10.2244 16.9078C10.9009 13.5241 13.5236 10.9013 16.9073 10.2248C17.5057 10.1057 17.9375 9.58038 17.9375 8.96922C17.9375 8.35807 17.5057 7.83276 16.9073 7.7136C13.5249 7.03582 10.9021 4.41311 10.2244 1.03061C10.1052 0.430988 9.57989 0.000488281 8.96873 0.000488281C8.35758 0.000488281 7.83227 0.430988 7.71311 1.03061C7.03533 4.41311 4.41262 7.03582 1.03012 7.7136C0.431781 7.83276 0 8.35807 0 8.96922C0 9.58038 0.431781 10.1057 1.03012 10.2248ZM8.96873 4.88589C9.94376 6.5861 11.3519 7.99419 13.0521 8.96922C11.3519 9.94425 9.94376 11.3523 8.96873 13.0526C7.99371 11.3523 6.58561 9.94425 4.8854 8.96922C6.58561 7.99419 7.99371 6.5861 8.96873 4.88589Z" fill="black"/>
<path d="M74.3124 19.2193C74.3124 17.1002 72.5878 15.3756 70.4686 15.3756H65.1079C65.2514 14.9733 65.3436 14.5453 65.3436 14.0943C65.3436 13.3884 65.9176 12.8131 66.6249 12.8131H76.8749V10.2506H66.6249C64.5057 10.2506 62.7811 11.9752 62.7811 14.0943C62.7811 14.8003 62.2071 15.3756 61.4999 15.3756H56.8708L61.4333 1.68674C61.6024 1.18193 61.4422 0.627151 61.031 0.290183C60.6222 -0.046785 60.0431 -0.0929099 59.5832 0.168465L51.3704 4.86168L45.6445 0.281214C45.1768 -0.0929099 44.5106 -0.0929099 44.0429 0.281214L38.317 4.86168L30.1042 0.168465C29.6455 -0.0941912 29.0677 -0.046785 28.6564 0.290183C28.2451 0.627151 28.085 1.18193 28.2541 1.68674L32.8486 15.4691C32.3707 15.6562 32.0312 16.1136 32.0312 16.6568V17.6549C17.4314 23.0144 7.68749 36.9147 7.68749 52.5318V79.438H0V82.0005H8.96873H80.7186C81.4271 82.0005 81.9999 81.4265 81.9999 80.7192V52.5318C81.9999 37.1645 72.5545 23.4782 58.3429 17.9381H61.4999H70.4686C71.1759 17.9381 71.7499 18.5134 71.7499 19.2193C71.7499 21.3385 73.4744 23.0631 75.5936 23.0631H81.9999V20.5006H75.5936C74.8864 20.5006 74.3124 19.9253 74.3124 19.2193ZM37.8019 7.51898C38.2568 7.78036 38.8282 7.73551 39.2382 7.40752L44.8437 2.92315L50.4491 7.40752C50.8591 7.73423 51.4306 7.78036 51.8854 7.51898L57.9432 4.05833L54.1699 15.3756H35.5175L31.7455 4.05833L37.8019 7.51898ZM79.4374 52.5318V79.438H10.25V52.5318C10.25 37.7039 19.6825 24.5404 33.7237 19.7754C34.2452 19.5986 34.5937 19.1104 34.5937 18.5621V17.9381H55.0937V18.5621C55.0937 19.1104 55.4422 19.5986 55.9636 19.7754C70.0048 24.5404 79.4374 37.7039 79.4374 52.5318Z" fill="black"/>
<path d="M24.3438 51.2505C24.3438 62.5536 33.5405 71.7504 44.8437 71.7504C56.1469 71.7504 65.3437 62.5536 65.3437 51.2505C65.3437 39.9473 56.1469 30.7505 44.8437 30.7505C33.5405 30.7505 24.3438 39.9473 24.3438 51.2505ZM62.7812 51.2505C62.7812 61.1417 54.7349 69.1879 44.8437 69.1879C34.9525 69.1879 26.9062 61.1417 26.9062 51.2505C26.9062 41.3592 34.9525 33.313 44.8437 33.313C54.7349 33.313 62.7812 41.3592 62.7812 51.2505Z" fill="black"/>
<path d="M29.4688 51.2505C29.4688 59.7285 36.3657 66.6254 44.8437 66.6254C53.3217 66.6254 60.2187 59.7285 60.2187 51.2505C60.2187 42.7724 53.3217 35.8755 44.8437 35.8755C36.3657 35.8755 29.4688 42.7724 29.4688 51.2505ZM57.6562 51.2505C57.6562 58.3153 51.9085 64.0629 44.8437 64.0629C37.7789 64.0629 32.0312 58.3153 32.0312 51.2505C32.0312 44.1857 37.7789 38.438 44.8437 38.438C51.9085 38.438 57.6562 44.1857 57.6562 51.2505Z" fill="black"/>
<path d="M43.5625 41.0005V43.563H42.9219C40.4491 43.563 38.4375 45.5745 38.4375 48.0474C38.4375 50.5202 40.4491 52.5317 42.9219 52.5317H43.5625V56.3755H39.7187V58.938H43.5625V61.5005H46.125V58.938H46.7656C49.2384 58.938 51.25 56.9264 51.25 54.4536C51.25 51.9808 49.2384 49.9692 46.7656 49.9692H46.125V46.1255H49.9687V43.563H46.125V41.0005H43.5625ZM46.7656 52.5317C47.8252 52.5317 48.6875 53.394 48.6875 54.4536C48.6875 55.5132 47.8252 56.3755 46.7656 56.3755H46.125V52.5317H46.7656ZM43.5625 49.9692H42.9219C41.8623 49.9692 41 49.1069 41 48.0474C41 46.9878 41.8623 46.1255 42.9219 46.1255H43.5625V49.9692Z" fill="black"/>
<path d="M5.12499 23.063C3.00581 23.063 1.28125 24.7875 1.28125 26.9067C1.28125 29.0259 3.00581 30.7505 5.12499 30.7505C7.24418 30.7505 8.96874 29.0259 8.96874 26.9067C8.96874 24.7875 7.24418 23.063 5.12499 23.063ZM5.12499 28.188C4.41774 28.188 3.84375 27.6127 3.84375 26.9067C3.84375 26.2008 4.41774 25.6255 5.12499 25.6255C5.83224 25.6255 6.40624 26.2008 6.40624 26.9067C6.40624 27.6127 5.83224 28.188 5.12499 28.188Z" fill="black"/>
<path d="M76.875 64.063H74.3125V66.6255H76.875V64.063Z" fill="black"/>
<path d="M71.75 64.063H69.1875V66.6255H71.75V64.063Z" fill="black"/>
<path d="M66.625 64.063H64.0625V66.6255H66.625V64.063Z" fill="black"/>
<path d="M76.875 58.938H74.3125V61.5005H76.875V58.938Z" fill="black"/>
<path d="M71.75 58.938H69.1875V61.5005H71.75V58.938Z" fill="black"/>
<path d="M76.875 74.313H74.3125V76.8755H76.875V74.313Z" fill="black"/>
<path d="M71.75 74.313H69.1875V76.8755H71.75V74.313Z" fill="black"/>
<path d="M66.625 74.313H64.0625V76.8755H66.625V74.313Z" fill="black"/>
<path d="M76.875 69.188H74.3125V71.7505H76.875V69.188Z" fill="black"/>
<path d="M71.75 69.188H69.1875V71.7505H71.75V69.188Z" fill="black"/>
<path d="M82 0.000488281H79.4375V2.56298H82V0.000488281Z" fill="black"/>
<path d="M76.875 0.000488281H74.3125V2.56298H76.875V0.000488281Z" fill="black"/>
<path d="M71.75 0.000488281H69.1875V2.56298H71.75V0.000488281Z" fill="black"/>
<path d="M82 5.12549H79.4375V7.68798H82V5.12549Z" fill="black"/>
<path d="M76.875 5.12549H74.3125V7.68798H76.875V5.12549Z" fill="black"/>
<path d="M66.625 69.188H64.0625V71.7505H66.625V69.188Z" fill="black"/>
<path d="M61.5 74.313H58.9375V76.8755H61.5V74.313Z" fill="black"/>
<path d="M61.5 69.188H58.9375V71.7505H61.5V69.188Z" fill="black"/>
<path d="M20.5 14.0942H17.9375V16.6567H20.5V14.0942Z" fill="black"/>
</svg>
