<svg width="86" height="86" viewBox="0 0 86 86" fill="none" xmlns="http://www.w3.org/2000/svg">
<path d="M4.20444 0C1.81556 0.286667 0 2.38889 0 4.77778V9.55556H4.77778H9.55556V4.77778V0H4.77778H4.20444ZM19.1111 0V9.55556H28.6667V0H19.1111ZM38.2222 0V9.55556H47.7778V0H38.2222ZM57.3333 0V9.55556H66.8889V0H57.3333ZM76.4444 0V4.77778V9.55556H81.2222H86V4.77778V4.20444C85.7133 1.81556 83.6111 0 81.2222 0H76.4444ZM0 19.1111V28.6667H9.55556V19.1111H0ZM76.4444 19.1111V28.6667H86V19.1111H76.4444ZM0 38.2222V47.7778H9.55556V38.2222H0ZM77.9256 43C77.3044 43 76.6833 43.2389 76.2056 43.6689L68.7522 51.17L64.1656 46.5833L60.7733 49.9756L64.1656 53.3678L42.8567 74.6767V86H54.2278L75.4889 64.6911L78.8333 68.0833L82.2733 64.6911L77.6867 60.1044L85.14 52.6989C86 51.7433 86 50.1667 85.14 49.2589L79.55 43.6689C79.12 43.2389 78.5467 43 77.9256 43ZM0 57.3333V66.8889H9.55556V57.3333H0ZM66.8889 57.3333L71.5233 61.9678L52.2211 81.2222L47.6344 76.6356L66.8889 57.3333ZM0 76.4444V81.2222V81.7956C0.286667 84.1844 2.38889 86 4.77778 86H9.55556V81.2222V76.4444H4.77778H0ZM19.1111 76.4444V86H28.6667V76.4444H19.1111Z" fill="black"/>
</svg>
