<svg width="73" height="34" viewBox="0 0 73 34" fill="none" xmlns="http://www.w3.org/2000/svg">
<path d="M24.2116 9.7886L31.2938 16.8708L31.3176 16.8504L36.2544 21.7872L36.2748 21.8076L43.4896 29.0224C45.8673 31.3994 48.8964 33.0181 52.194 33.6737C55.4915 34.3293 58.9094 33.9923 62.0155 32.7055C65.1216 31.4187 67.7763 29.2398 69.6441 26.4442C71.5119 23.6487 72.5088 20.3621 72.5088 17C72.5088 13.6379 71.5119 10.3513 69.6441 7.55578C67.7763 4.76024 65.1216 2.5813 62.0155 1.29448C58.9094 0.00766201 55.4915 -0.329255 52.194 0.32633C48.8964 0.981915 45.8673 2.60056 43.4896 4.9776L41.062 7.40521L45.873 12.2128L48.2972 9.7886C49.7236 8.3618 51.541 7.39004 53.5197 6.99622C55.4984 6.6024 57.5495 6.80421 59.4134 7.57614C61.2774 8.34806 62.8706 9.65542 63.9916 11.3329C65.1125 13.0103 65.7108 14.9825 65.7108 17C65.7108 19.0175 65.1125 20.9897 63.9916 22.6671C62.8706 24.3446 61.2774 25.6519 59.4134 26.4239C57.5495 27.1958 55.4984 27.3976 53.5197 27.0038C51.541 26.61 49.7236 25.6382 48.2972 24.2114L41.2524 17.1666L41.2286 17.187L29.0226 4.98101C26.6453 2.603 23.6162 0.983398 20.3184 0.327034C17.0206 -0.329331 13.6022 0.00702536 10.4956 1.29356C7.38892 2.5801 4.73358 4.75903 2.86537 7.55478C0.997162 10.3505 0 13.6375 0 17C0 20.3625 0.997162 23.6495 2.86537 26.4452C4.73358 29.241 7.38892 31.4199 10.4956 32.7064C13.6022 33.993 17.0206 34.3293 20.3184 33.673C23.6162 33.0166 26.6453 31.397 29.0226 29.019L31.4468 26.5948L26.6392 21.7872L24.2116 24.2114C22.7852 25.6382 20.9678 26.61 18.9891 27.0038C17.0104 27.3976 14.9594 27.1958 13.0954 26.4239C11.2314 25.6519 9.6382 24.3446 8.51727 22.6671C7.39635 20.9897 6.79805 19.0175 6.79805 17C6.79805 14.9825 7.39635 13.0103 8.51727 11.3329C9.6382 9.65542 11.2314 8.34806 13.0954 7.57614C14.9594 6.80421 17.0104 6.6024 18.9891 6.99622C20.9678 7.39004 22.7852 8.3618 24.2116 9.7886Z" fill="black"/>
</svg>
