<svg width="89" height="85" viewBox="0 0 89 85" fill="none" xmlns="http://www.w3.org/2000/svg">
<path d="M2.85714 72.8571H0C0 79.5714 5.42857 85 12.1429 85H88.5714V10.7143H13.5714V0H12.1429C5.42857 0 0 5.42857 0 12.1429V72.8571H2.85714C2.85714 67.7143 7 63.5714 12.1429 63.5714H13.5714V13.5714H85.7143V82.1429H12.1429C7 82.1429 2.85714 78 2.85714 72.8571ZM10.7143 60.7857C7.57143 61.1429 4.78571 62.7143 2.85714 65V12.1429C2.85714 7.5 6.28571 3.64286 10.7143 3V60.7857Z" fill="black"/>
<path d="M72.1437 19.2856H63.5723V67.4999L67.858 76.0714L72.1437 67.4999V19.2856ZM69.2866 22.1428V29.9999H66.4294V22.1428H69.2866ZM67.858 69.6428L66.4294 66.7856V32.8571H69.2866V66.7856L67.858 69.6428Z" fill="black"/>
<path d="M28.5723 53.5714V56.4285H34.2866L30.7151 76.2142L33.5008 76.7142L37.1437 56.4285H45.7151L49.358 76.7142L52.1437 76.2142L48.5723 56.4285H54.2866V53.5714H48.0723L46.4294 44.1428C48.6437 42.5714 50.0008 39.9285 50.0008 37.1428C50.0008 32.9285 46.9294 29.3571 42.858 28.7142V19.2856H40.0008V28.7142C35.9294 29.4285 32.858 32.9285 32.858 37.1428C32.858 39.9285 34.2151 42.4999 36.4294 44.1428L34.7866 53.5714H28.5723ZM38.7151 42.1428C36.858 41.1428 35.7151 39.2142 35.7151 37.1428C35.7151 33.9999 38.2866 31.4285 41.4294 31.4285C44.5723 31.4285 47.1437 33.9999 47.1437 37.1428C47.1437 39.2142 46.0008 41.1428 44.1437 42.1428L43.2151 42.6428L45.2151 53.5714H37.6437L39.5723 42.6428L38.7151 42.1428Z" fill="black"/>
</svg>
