<svg width="125" height="123" viewBox="0 0 125 123" fill="none" xmlns="http://www.w3.org/2000/svg">
<path d="M117 87.0007C115.9 87.0007 114.6 87.2007 113.2 87.6007L91.9001 95.0007C91.9001 94.9007 91.9001 94.9007 91.9001 94.8007C91.9001 94.7007 91.9001 94.6007 91.9001 94.5007C91.9001 94.3007 91.9001 94.2007 91.9001 94.0007C91.9001 93.9007 91.9001 93.8007 91.9001 93.8007V93.7007V93.6007C91.9001 93.4007 91.8001 93.1007 91.8001 92.9007C91.8001 92.9007 91.8001 92.9007 91.8001 92.8007C90.9001 88.9007 87.3 86.0007 83.1 86.0007H66.2C58.4 76.1007 40.3 76.0007 39.5 76.0007H26.5V71.2007H0V115.301H26.5V111.101L59.3 121.501C59.5 121.601 64.4 123.001 70 123.001C73.4 123.001 76.4 122.501 79 121.401C85.6001 118.701 112.1 104.501 120.1 100.201C122.3 99.0007 125.3 95.6007 123.6 91.5007C122.3 88.5007 120.1 87.0007 117 87.0007ZM22.5 111.201H4V75.1007H22.5V75.8007V109.601V111.201ZM118.1 96.6007C110.2 100.901 83.8 114.901 77.4 117.601C75.4 118.401 72.9 118.901 70 118.901C64.9 118.901 60.4 117.601 60.4 117.601L26.4 106.901V79.8007H39.4C39.6 79.8007 57.2 79.9007 63.4 89.0007L64 89.9007H82.9C85.4001 89.9007 87.5001 91.7007 87.8001 94.1007V94.2007C87.8001 94.4007 87.8001 94.5007 87.8001 94.7007C87.8001 94.9007 87.8 95.1007 87.7001 95.3007C87.7001 95.4007 87.7001 95.5007 87.7001 95.6007C87.7001 95.8007 87.6001 96.0007 87.5001 96.2007C87.5001 96.3007 87.5001 96.4007 87.4001 96.4007C87.3001 96.7007 87.2001 96.9007 87.0001 97.1007C86.2001 98.3007 84.8 99.1007 83.2 99.1007H57.2V103.101H83.2C85.9 103.101 88.4001 101.801 90.0001 99.8007L114.3 91.4007C115.3 91.1007 116.2 91.0007 117 91.0007C118.5 91.0007 119.2 91.5007 119.8 92.9007C120.6 94.8007 118.7 96.3007 118.1 96.6007Z" fill="black"/>
<path d="M103.398 69.8001V32L108.098 36.7L110.898 33.9L103.398 26.4V6.2H91.2977V14.2L76.9977 0L43.0977 33.9L45.8977 36.7L50.5977 32V69.8001H103.398ZM95.2977 23.9V10.2H99.3977V27.9V28V65.8H54.5977V28L76.9977 5.6L95.2977 23.9Z" fill="black"/>
</svg>
