<svg width="105" height="109" viewBox="0 0 105 109" fill="none" xmlns="http://www.w3.org/2000/svg">
<path d="M8.42876 70.4106C8.54308 70.4106 8.64712 70.3862 8.73704 70.3451C8.9721 70.2423 9.13908 70.0163 9.13908 69.7478C9.13908 69.383 8.81539 69.0889 8.41848 69.0889C8.02157 69.0889 7.69531 69.383 7.69531 69.7478C7.69531 70.006 7.86744 70.2321 8.09993 70.3451C8.21039 70.3862 8.31444 70.4106 8.42876 70.4106Z" fill="black"/>
<path d="M13.2951 65.2088H13.4466H13.647H13.9977V61.1421H10.0723V65.2088H10.4216H10.6606H10.7749V62.3893V61.7856H13.2951V61.9963V65.2088Z" fill="black"/>
<path d="M11.8672 68.9169C12.6649 68.9169 13.4395 68.8219 14.1331 68.6613C16.2602 68.1527 17.7554 66.9375 17.7554 65.5259H14.0098H13.6578H13.5191H10.6701H10.4325H10.0818H5.97656C5.97656 66.9684 7.53337 68.2028 9.74012 68.696C10.3991 68.8386 11.1171 68.9169 11.8672 68.9169Z" fill="black"/>
<path d="M12.9565 83.4525C12.9565 83.4037 12.9475 83.3639 12.9475 83.3228C12.8319 83.3549 12.7176 83.3793 12.5955 83.3793C12.4697 83.3793 12.3502 83.3549 12.2436 83.3228C12.2436 83.3626 12.2346 83.4101 12.2346 83.4525L11.4806 85.9277C11.4511 85.9996 11.4434 86.0729 11.4434 86.1538C11.4434 86.8782 11.9546 87.4601 12.5878 87.4601C13.2211 87.4601 13.7285 86.8718 13.7285 86.1538C13.7285 86.0729 13.7208 85.9996 13.7118 85.9277L12.9565 83.4525Z" fill="black"/>
<path d="M12.0398 60.6807C15.8791 60.3018 12.0398 55.0059 12.0398 55.0059C12.0398 55.0059 8.20173 60.3018 12.0398 60.6807Z" fill="black"/>
<path d="M7.28711 73.5136C7.28711 74.2394 7.79448 74.82 8.42774 74.82C9.06099 74.82 9.57222 74.2317 9.57222 73.5136C9.57222 73.4314 9.56066 73.3595 9.55424 73.2876L8.79639 70.8111C8.79639 70.7623 8.7874 70.7212 8.7874 70.6826C8.67308 70.7147 8.56133 70.7404 8.43673 70.7404C8.31213 70.7404 8.19139 70.7147 8.08606 70.6826C8.08606 70.7199 8.07579 70.7725 8.07579 70.8111L7.31922 73.2876C7.29225 73.3595 7.28711 73.4301 7.28711 73.5136Z" fill="black"/>
<path d="M11.8672 82.3873C11.8672 82.6455 12.0329 82.8728 12.2692 82.9846C12.3669 83.0257 12.4709 83.0501 12.5801 83.0501C12.6803 83.0501 12.7959 83.0257 12.8845 82.9846C13.1234 82.8805 13.2878 82.6557 13.2878 82.3873C13.2878 82.0263 12.9629 81.7271 12.5672 81.7271C12.1716 81.7271 11.8672 82.0263 11.8672 82.3873Z" fill="black"/>
<path d="M14.9672 80.8486C14.9672 80.5108 14.6589 80.2192 14.2902 80.2192C13.9036 80.2192 13.5799 80.5121 13.5684 80.8666C13.5684 81.2121 13.8612 81.4922 14.2466 81.4922C14.6319 81.4922 14.9672 81.1954 14.9672 80.8486Z" fill="black"/>
<path d="M35.6592 80.8731C35.6463 80.5417 35.3419 80.2681 34.99 80.2681C34.611 80.2681 34.2745 80.5828 34.2938 80.9373C34.2938 81.2674 34.602 81.541 34.9527 81.541C35.3303 81.5423 35.6669 81.2186 35.6592 80.8731Z" fill="black"/>
<path d="M12.762 78.986C12.7517 79.3277 13.069 79.6231 13.4376 79.6231C13.823 79.6231 14.1492 79.3277 14.1595 78.9706C14.1685 78.6225 13.8615 78.3438 13.48 78.3438C13.0985 78.3438 12.762 78.6392 12.762 78.986Z" fill="black"/>
<path d="M12.2148 76.9458C12.2148 77.2939 12.5231 77.5752 12.902 77.5662C13.2784 77.5598 13.6034 77.2528 13.6034 76.897C13.5957 76.5501 13.2874 76.2778 12.911 76.2778C12.5154 76.2855 12.2148 76.5758 12.2148 76.9458Z" fill="black"/>
<path d="M31.785 35.9079C31.7786 35.561 31.4626 35.281 31.094 35.2887C30.7163 35.2964 30.426 35.5854 30.4337 35.9438C30.4337 36.2868 30.7484 36.5604 31.1274 36.554C31.5076 36.5462 31.7966 36.256 31.785 35.9079Z" fill="black"/>
<path d="M27.634 46.5986C27.9936 46.5986 28.3199 46.307 28.3276 45.9692C28.3353 45.6314 28.0296 45.3334 27.6584 45.3244C27.2782 45.3167 26.9725 45.5826 26.957 45.9294C26.9275 46.2993 27.2358 46.6063 27.634 46.5986Z" fill="black"/>
<path d="M32.9064 31.9829C32.9141 31.6438 32.6097 31.3458 32.2397 31.338C31.866 31.3303 31.5435 31.6142 31.5333 31.952C31.5281 32.2924 31.8338 32.5956 32.2025 32.6058C32.5724 32.6135 32.8974 32.3233 32.9064 31.9829Z" fill="black"/>
<path d="M15.5292 82.9768C15.9158 82.9768 16.2523 82.6788 16.2523 82.332C16.2523 81.9942 15.9454 81.7026 15.5767 81.7026C15.1875 81.7026 14.8612 81.9955 14.8535 82.3487C14.851 82.702 15.1425 82.9768 15.5292 82.9768Z" fill="black"/>
<path d="M32.3186 33.9515C32.307 33.6098 31.982 33.3208 31.6211 33.3298C31.2627 33.3298 30.9455 33.6278 30.9455 33.9643C30.9377 34.306 31.2524 34.5937 31.6147 34.604C31.9923 34.6117 32.325 34.3047 32.3186 33.9515Z" fill="black"/>
<path d="M19.044 59.5603C19.1596 59.5603 19.2663 59.5334 19.3536 59.4948C19.5938 59.3895 19.7557 59.1609 19.7557 58.8975C19.7557 58.5366 19.4332 58.2373 19.0376 58.2373C18.6394 58.2373 18.3145 58.5353 18.3145 58.8975C18.3145 59.1531 18.4814 59.3818 18.7191 59.4948C18.8257 59.5346 18.9336 59.5603 19.044 59.5603Z" fill="black"/>
<path d="M26.6028 48.6939C26.9804 48.7119 27.326 48.4036 27.326 48.0491C27.326 47.7113 27.0177 47.4197 26.649 47.4146C26.2791 47.4146 25.9631 47.6971 25.9541 48.0337C25.9336 48.3792 26.2329 48.6785 26.6028 48.6939Z" fill="black"/>
<path d="M17.9317 52.588C18.493 52.6921 19.098 52.7473 19.7235 52.7473C20.5585 52.7473 21.3484 52.6523 22.0587 52.4673C24.1525 51.9419 25.6117 50.7474 25.6117 49.355H21.9226H21.5681H21.4884H21.2148H18.6921H18.6086H18.3414H17.9933H13.8419C13.8303 50.8707 15.5567 52.1513 17.9317 52.588Z" fill="black"/>
<path d="M21.3587 49.0235H21.5603H21.911V45.1777H17.9805V49.0235H18.3311H18.597V49.0312H18.6869V46.1141V45.8225H19.6516H21.2084V49.0235H21.3587Z" fill="black"/>
<path d="M17.9023 62.6689C17.9023 63.3959 18.4123 63.9752 19.0443 63.9752C19.6775 63.9752 20.1887 63.3882 20.1887 62.6689C20.1887 62.5893 20.1785 62.5186 20.1682 62.4454L19.4168 59.9689C19.4168 59.9214 19.4026 59.8803 19.4026 59.8379C19.2934 59.8713 19.1766 59.8983 19.0558 59.8983C18.9325 59.8983 18.8079 59.8713 18.7013 59.8379C18.7013 59.879 18.691 59.9278 18.691 59.9689L17.9396 62.4454C17.9101 62.5109 17.9023 62.5906 17.9023 62.6689Z" fill="black"/>
<path d="M31.1812 37.9876C31.1735 37.6498 30.8575 37.3621 30.4889 37.3698C30.1112 37.3698 29.7952 37.6832 29.8132 38.0441C29.8286 38.3832 30.1575 38.6594 30.5248 38.6414C30.8948 38.626 31.1928 38.3267 31.1812 37.9876Z" fill="black"/>
<path d="M19.9522 44.5652C23.7929 44.1876 19.9522 38.8916 19.9522 38.8916C19.9522 38.8916 16.109 44.1876 19.9522 44.5652Z" fill="black"/>
<path d="M17.9983 83.4616C17.9983 83.107 17.7016 82.8399 17.315 82.8489C16.9271 82.8489 16.6291 83.1302 16.6213 83.4757C16.6111 83.8302 16.9116 84.1218 17.2893 84.1218C17.6721 84.1231 17.9983 83.8148 17.9983 83.4616Z" fill="black"/>
<path d="M31.5088 82.0582C31.1196 82.0505 30.7856 82.3627 30.7972 82.721C30.8023 83.0499 31.0939 83.3235 31.4638 83.3235C31.8517 83.3235 32.1741 83.0165 32.1741 82.6632C32.1664 82.3318 31.8646 82.0582 31.5088 82.0582Z" fill="black"/>
<path d="M29.0451 83.5483C29.0374 83.8964 29.3559 84.1777 29.722 84.1687C30.1009 84.161 30.4285 83.8463 30.4182 83.4995C30.4092 83.1527 30.0855 82.8881 29.7143 82.9035C29.3559 82.9215 29.0451 83.2169 29.0451 83.5483Z" fill="black"/>
<path d="M28.5482 77.1173C28.1615 77.1237 27.8533 77.4217 27.8635 77.7865C27.87 78.132 28.1885 78.4056 28.5559 78.3915C28.9245 78.3645 29.2238 78.0755 29.2238 77.739C29.2225 77.3922 28.9232 77.1109 28.5482 77.1173Z" fill="black"/>
<path d="M27.5267 78.2692C27.5177 77.9301 27.1914 77.6488 26.8215 77.6642C26.4619 77.6809 26.1484 77.9789 26.1484 78.318C26.1484 78.6571 26.4696 78.9551 26.8331 78.9448C27.1992 78.9307 27.5267 78.616 27.5267 78.2692Z" fill="black"/>
<path d="M28.5478 84.2499C28.5478 83.9031 28.2408 83.6128 27.8695 83.6218C27.4932 83.6295 27.1682 83.9455 27.1759 84.291C27.1759 84.6455 27.4932 84.9127 27.8695 84.8986C28.2395 84.878 28.5388 84.589 28.5478 84.2499Z" fill="black"/>
<path d="M35.0754 71.3198C34.699 71.3198 34.3625 71.6268 34.3754 71.9762C34.3831 72.305 34.6913 72.5773 35.0343 72.5876C35.4107 72.5953 35.7459 72.2806 35.7356 71.9248C35.7254 71.5934 35.4338 71.3198 35.0754 71.3198Z" fill="black"/>
<path d="M34.7666 73.3524C34.7576 73.0223 34.4673 72.741 34.1064 72.741C33.7455 72.7307 33.4218 73.0223 33.4051 73.3588C33.3871 73.7069 33.6864 74.0024 34.0653 74.0139C34.4442 74.0139 34.7756 73.7069 34.7666 73.3524Z" fill="black"/>
<path d="M25.873 84.0724C25.4967 84.0647 25.1602 84.364 25.1602 84.7185C25.1602 85.0576 25.4363 85.3222 25.796 85.3453C26.18 85.3633 26.514 85.0717 26.5333 84.7185C26.5513 84.3717 26.252 84.0801 25.873 84.0724Z" fill="black"/>
<path d="M33.2649 81.3254C32.8873 81.3152 32.5469 81.6234 32.5469 81.978C32.5469 82.3004 32.8359 82.583 33.1955 82.5894C33.5822 82.5997 33.9149 82.3004 33.9149 81.9471C33.9149 81.6119 33.6284 81.3332 33.2649 81.3254Z" fill="black"/>
<path d="M33.5018 74.5619C33.5095 74.2061 33.209 73.9248 32.8326 73.9248C32.4627 73.9248 32.1467 74.2061 32.1377 74.5516C32.1171 74.8985 32.4267 75.1965 32.8056 75.1965C33.1768 75.1965 33.4928 74.9087 33.5018 74.5619Z" fill="black"/>
<path d="M31.5272 75.1173C31.1393 75.1096 30.8027 75.4089 30.8027 75.7609C30.8027 76.0948 31.1033 76.3749 31.4565 76.3838C31.8406 76.3928 32.1746 76.0935 32.1746 75.73C32.1733 75.3999 31.8933 75.125 31.5272 75.1173Z" fill="black"/>
<path d="M30.7867 76.7625C30.7777 76.4156 30.4617 76.1408 30.093 76.1575C29.7334 76.1729 29.4238 76.4632 29.4238 76.8087C29.4238 77.1568 29.7205 77.4394 30.0995 77.4394C30.4797 77.4317 30.7969 77.117 30.7867 76.7625Z" fill="black"/>
<path d="M25.0128 88.1123C25.0051 88.0391 25.0051 87.9749 24.9948 87.9106C24.8715 87.9492 24.7315 87.9749 24.5915 87.9749C24.4502 87.9749 24.3102 87.9492 24.1882 87.9106C24.1792 87.9749 24.1792 88.0468 24.1702 88.1123L23.298 90.9664C23.2813 91.0538 23.2813 91.1437 23.2813 91.2311C23.2736 92.0621 23.8606 92.7403 24.5838 92.7403C25.3108 92.7403 25.8978 92.0634 25.8978 91.2311C25.8978 91.1437 25.8927 91.0538 25.8811 90.9664L25.0128 88.1123Z" fill="black"/>
<path d="M19.1776 83.7194C18.791 83.7104 18.457 84.0149 18.457 84.363C18.457 84.7111 18.755 84.9898 19.143 84.9898C19.5077 84.9898 19.8289 84.7098 19.8379 84.363C19.8533 84.0161 19.554 83.7194 19.1776 83.7194Z" fill="black"/>
<path d="M17.305 77.3922C17.4194 77.3922 17.526 77.3652 17.6108 77.3254C17.8497 77.2201 18.0154 76.994 18.0154 76.7294C18.0154 76.3659 17.6891 76.0679 17.2935 76.0679C16.8979 76.0679 16.5703 76.3646 16.5703 76.7294C16.5703 76.9863 16.7412 77.2136 16.9749 77.3254C17.0867 77.3665 17.1894 77.3922 17.305 77.3922Z" fill="black"/>
<path d="M21.3129 85.3207C21.6969 85.313 22.0245 85.0086 22.0052 84.6515C21.9898 84.3227 21.6892 84.0465 21.3386 84.0465C20.9506 84.0388 20.627 84.3381 20.627 84.7003C20.627 85.0561 20.9262 85.3297 21.3129 85.3207Z" fill="black"/>
<path d="M17.6723 77.7951C17.6723 77.7463 17.6633 77.7052 17.6633 77.6641C17.5502 77.6949 17.4372 77.7206 17.3152 77.7206C17.1906 77.7206 17.0686 77.6949 16.9632 77.6641C16.9632 77.7039 16.9542 77.7527 16.9542 77.7951L16.1964 80.269C16.1874 80.3409 16.1797 80.4206 16.1797 80.4938C16.1797 81.2182 16.6896 81.8001 17.3216 81.8001C17.9394 81.8001 18.4468 81.2118 18.4468 80.4938C18.4468 80.4142 18.4391 80.3409 18.4288 80.269L17.6723 77.7951Z" fill="black"/>
<path d="M19.7394 76.5941C19.3721 76.6095 19.0625 76.8972 19.0625 77.2363C19.0625 77.5844 19.3798 77.8735 19.7523 77.867C20.1376 77.858 20.4626 77.5433 20.4523 77.1978C20.442 76.8497 20.1184 76.5761 19.7394 76.5941Z" fill="black"/>
<path d="M23.6151 84.3062C23.2272 84.3062 22.8996 84.6221 22.9125 84.9677C22.9125 85.2978 23.2169 85.5739 23.5688 85.5816C23.9478 85.5906 24.2843 85.2836 24.2907 84.9381C24.2894 84.581 23.9889 84.3062 23.6151 84.3062Z" fill="black"/>
<path d="M23.1756 77.8322C22.7967 77.8412 22.473 78.1636 22.4909 78.5104C22.5076 78.8405 22.8082 79.1077 23.1679 79.1077C23.5455 79.1077 23.8692 78.8097 23.8692 78.4539C23.8602 78.1161 23.5455 77.8245 23.1756 77.8322Z" fill="black"/>
<path d="M23.7559 86.895C23.7559 87.193 23.9485 87.4589 24.2196 87.5796C24.3275 87.6284 24.4495 87.6541 24.5831 87.6541C24.7141 87.6541 24.8258 87.6284 24.944 87.5796C25.2202 87.4589 25.4077 87.2007 25.4077 86.895C25.4077 86.4749 25.0378 86.1384 24.5818 86.1384C24.1271 86.1281 23.7559 86.4749 23.7559 86.895Z" fill="black"/>
<path d="M21.4705 78.674C21.8558 78.6869 22.1924 78.3978 22.1988 78.0343C22.2078 77.6888 21.9034 77.3921 21.5296 77.3921C21.1519 77.3921 20.8103 77.7042 20.8205 78.0523C20.8218 78.3824 21.107 78.6573 21.4705 78.674Z" fill="black"/>
<path d="M25.7224 78.5111C25.7134 78.1784 25.4257 77.9061 25.0725 77.8971C24.6961 77.8907 24.3596 78.1874 24.3596 78.5509C24.3506 78.8977 24.6589 79.179 25.0365 79.179C25.4141 79.1713 25.734 78.8682 25.7224 78.5111Z" fill="black"/>
<path d="M13.8224 74.4145C13.8391 74.0702 13.5681 73.7812 13.1815 73.7543C12.7936 73.7311 12.4442 74.0137 12.4275 74.3605C12.4005 74.6984 12.6998 75.0066 13.0684 75.0298C13.4525 75.0529 13.7967 74.769 13.8224 74.4145Z" fill="black"/>
<path d="M46.8153 28.4926C47.1839 28.5003 47.5025 28.21 47.5115 27.8658C47.5192 27.5254 47.2109 27.2287 46.8423 27.2184C46.4839 27.2107 46.1563 27.5113 46.1486 27.8478C46.1396 28.1946 46.4479 28.4926 46.8153 28.4926Z" fill="black"/>
<path d="M47.2575 30.427C47.6249 30.4193 47.9254 30.1303 47.9254 29.7822C47.9165 29.4367 47.6107 29.1631 47.2305 29.1631C46.8619 29.1708 46.5562 29.4611 46.5626 29.8079C46.5626 30.1444 46.8876 30.4373 47.2575 30.427Z" fill="black"/>
<path d="M52.0548 31.9825C52.0638 32.3242 52.3901 32.6132 52.76 32.6042C53.121 32.594 53.4369 32.2908 53.4267 31.9504C53.419 31.6049 53.0901 31.3223 52.7228 31.3364C52.3567 31.3454 52.0471 31.6434 52.0548 31.9825Z" fill="black"/>
<path d="M47.1775 25.9367C47.1686 25.5988 46.8423 25.3098 46.4839 25.3175C46.1153 25.3252 45.8044 25.6232 45.8147 25.9649C45.825 26.3015 46.1397 26.5892 46.5083 26.584C46.8603 26.584 47.1775 26.2758 47.1775 25.9367Z" fill="black"/>
<path d="M53.1643 35.9076C53.154 36.2557 53.4559 36.5447 53.822 36.5524C54.2035 36.5601 54.5195 36.2853 54.5195 35.9423C54.5272 35.5929 54.2279 35.3026 53.8592 35.2872C53.488 35.2808 53.1746 35.5544 53.1643 35.9076Z" fill="black"/>
<path d="M52.6447 33.9518C52.6357 34.296 52.9658 34.6043 53.3473 34.6043C53.7057 34.594 54.0217 34.3063 54.0153 33.9646C54.0153 33.6281 53.6993 33.3378 53.3383 33.3301C52.9671 33.3301 52.6511 33.6204 52.6447 33.9518Z" fill="black"/>
<path d="M49.1974 26.5891C49.2963 26.5891 49.3837 26.566 49.462 26.5365C49.665 26.4465 49.8075 26.2526 49.8075 26.0342C49.8075 25.7285 49.5339 25.478 49.1974 25.478C48.8647 25.478 48.5898 25.7272 48.5898 26.0342C48.5898 26.2526 48.7324 26.4453 48.9379 26.5365C49.0163 26.5737 49.1036 26.5891 49.1974 26.5891Z" fill="black"/>
<path d="M48.4961 36.1355C48.8557 36.1355 49.182 35.8388 49.173 35.4971C49.173 35.1606 48.848 34.8626 48.4871 34.8677C48.1274 34.8677 47.8025 35.176 47.8127 35.5074C47.8127 35.8465 48.1274 36.1355 48.4961 36.1355Z" fill="black"/>
<path d="M47.6671 32.3302C48.037 32.3225 48.3453 32.0296 48.3299 31.6828C48.3209 31.336 48.0152 31.0547 47.6363 31.0637C47.265 31.0714 46.9568 31.3694 46.967 31.7098C46.9837 32.054 47.2984 32.3379 47.6671 32.3302Z" fill="black"/>
<path d="M48.0833 34.1995C48.4506 34.1918 48.7589 33.9002 48.7525 33.5521C48.7525 33.2066 48.4326 32.9253 48.064 32.9253C47.6954 32.933 47.3896 33.2233 47.3986 33.5727C47.3986 33.9092 47.7146 34.1995 48.0833 34.1995Z" fill="black"/>
<path d="M53.7815 37.9874C53.7712 38.3278 54.068 38.6258 54.4392 38.6412C54.8078 38.6592 55.1366 38.383 55.1521 38.0362C55.17 37.6829 54.8541 37.3682 54.4751 37.3618C54.1039 37.3682 53.7879 37.6495 53.7815 37.9874Z" fill="black"/>
<path d="M48.2305 29.217C48.2305 29.8297 48.6621 30.3203 49.1964 30.3203C49.7333 30.3203 50.1662 29.8284 50.1662 29.217C50.1662 29.154 50.1585 29.0898 50.1469 29.0243L49.5047 26.9293C49.5047 26.9036 49.5047 26.8895 49.4983 26.8638C49.4006 26.8959 49.2953 26.9113 49.1887 26.9113C49.0847 26.9113 48.9806 26.8959 48.8817 26.8638C48.8817 26.8792 48.8817 26.9036 48.8727 26.9293L48.2305 29.0243V29.217Z" fill="black"/>
<path d="M64.7715 62.6689C64.7715 63.3959 65.2801 63.9752 65.9185 63.9752C66.5479 63.9752 67.0579 63.3882 67.0579 62.6689C67.0579 62.5893 67.0527 62.5186 67.0399 62.4454L66.2846 59.9689C66.2846 59.9214 66.2769 59.8803 66.2769 59.8379C66.1613 59.8713 66.0457 59.8983 65.9237 59.8983C65.8029 59.8983 65.6809 59.8713 65.5756 59.8379C65.5756 59.879 65.5627 59.9278 65.5627 59.9689L64.81 62.4454C64.7818 62.5109 64.7715 62.5906 64.7715 62.6689Z" fill="black"/>
<path d="M66.7775 49.355H66.5039H63.9799H63.8951H63.6292H63.2785H59.1309C59.1206 50.8707 60.8444 52.1513 63.213 52.588C63.7795 52.6921 64.387 52.7473 65.0087 52.7473C65.8437 52.7473 66.6349 52.6523 67.3439 52.4673C69.4364 51.9419 70.8968 50.7474 70.8968 49.355H67.2065H66.8558H66.7775Z" fill="black"/>
<path d="M48.8883 38.1421C49.2608 38.1498 49.5743 37.8673 49.582 37.5217C49.5935 37.1839 49.2775 36.8859 48.914 36.8782C48.5557 36.8679 48.2294 37.1608 48.223 37.4973C48.2114 37.8441 48.5197 38.1344 48.8883 38.1421Z" fill="black"/>
<path d="M65.9177 59.5603C66.0307 59.5603 66.1335 59.5334 66.2234 59.4948C66.4598 59.3895 66.6267 59.1609 66.6267 58.8975C66.6267 58.5366 66.3005 58.2373 65.9061 58.2373C65.5092 58.2373 65.1855 58.5353 65.1855 58.8975C65.1855 59.1531 65.3538 59.3818 65.5889 59.4948C65.6968 59.5346 65.8021 59.5603 65.9177 59.5603Z" fill="black"/>
<path d="M63.2695 49.0235H63.6241H63.8874V49.0312H63.9721V46.1141V45.8225H64.9432H66.4962V49.0235H66.6439H66.8468H67.1962V45.1777H63.2695V49.0235Z" fill="black"/>
<path d="M74.3497 65.2088H74.5H74.7016H75.0549V61.1421H71.123V65.2088H71.475H71.7126H71.8282V62.3893V61.7856H74.3497V61.9963V65.2088Z" fill="black"/>
<path d="M72.9182 60.6807C76.7588 60.3018 72.9182 55.0059 72.9182 55.0059C72.9182 55.0059 69.0724 60.3018 72.9182 60.6807Z" fill="black"/>
<path d="M65.0105 38.8916C65.0105 38.8916 61.1724 44.1876 65.0105 44.5652C68.8511 44.1876 65.0105 38.8916 65.0105 38.8916Z" fill="black"/>
<path d="M56.4803 44.664C56.8464 44.6717 57.1623 44.3879 57.1726 44.0488C57.1778 43.6955 56.8618 43.386 56.4803 43.3962C56.1091 43.3962 55.8008 43.6801 55.8008 44.0256C55.8008 44.3648 56.1091 44.655 56.4803 44.664Z" fill="black"/>
<path d="M58.356 48.6937C58.7273 48.6783 59.0278 48.3893 59.0188 48.0412C59.0086 47.7021 58.6926 47.4144 58.3214 47.4195C57.945 47.4195 57.6367 47.7124 57.6367 48.0489C57.6354 48.4034 57.9668 48.7001 58.356 48.6937Z" fill="black"/>
<path d="M30.6103 39.98C30.6206 39.6242 30.3213 39.3416 29.9449 39.3352C29.566 39.3262 29.2577 39.6088 29.25 39.9543C29.25 40.3152 29.539 40.5991 29.9179 40.6094C30.2943 40.6171 30.6026 40.3358 30.6103 39.98Z" fill="black"/>
<path d="M55.7102 39.9709C55.6999 39.6177 55.4019 39.3428 55.0153 39.3518C54.6389 39.3428 54.3384 39.6331 54.3499 39.9902C54.3576 40.3421 54.6659 40.6183 55.0423 40.6183C55.4199 40.6106 55.7205 40.3267 55.7102 39.9709Z" fill="black"/>
<path d="M55.7923 42.6877C56.1789 42.6954 56.5052 42.3974 56.4846 42.0364C56.4795 41.6896 56.1584 41.416 55.7923 41.416C55.439 41.416 55.1231 41.7127 55.1231 42.0518C55.1218 42.3974 55.4313 42.68 55.7923 42.6877Z" fill="black"/>
<path d="M57.3387 46.599C57.7227 46.599 58.0387 46.301 58.0182 45.9297C58.0027 45.5829 57.6868 45.3106 57.3181 45.3247C56.9315 45.3337 56.6258 45.6305 56.6412 45.9696C56.6515 46.3074 56.97 46.599 57.3387 46.599Z" fill="black"/>
<path d="M37.5616 33.5728C37.5616 33.2247 37.2623 32.9332 36.8911 32.9254C36.5173 32.9177 36.209 33.2003 36.209 33.5523C36.209 33.9004 36.5096 34.192 36.8808 34.1997C37.2456 34.1997 37.5616 33.9094 37.5616 33.5728Z" fill="black"/>
<path d="M34.3559 41.506C34.3623 41.8503 34.6796 42.1226 35.0495 42.1226C35.4092 42.1149 35.7252 41.8169 35.7252 41.4868C35.7162 41.1477 35.3899 40.8587 35.0328 40.8664C34.6616 40.8664 34.3418 41.1644 34.3559 41.506Z" fill="black"/>
<path d="M35.2426 43.5598C35.2336 43.2182 34.9189 42.9202 34.5489 42.9304C34.188 42.9381 33.863 43.2464 33.8733 43.5752C33.881 43.9118 34.1957 44.2046 34.5669 44.1944C34.933 44.1879 35.2426 43.8989 35.2426 43.5598Z" fill="black"/>
<path d="M34.9417 39.5379C34.9494 39.8847 35.2666 40.166 35.6353 40.1583C36.0155 40.148 36.3045 39.8603 36.3045 39.5109C36.2955 39.1641 35.9782 38.8751 35.6096 38.8918C35.2409 38.8995 34.9314 39.1975 34.9417 39.5379Z" fill="black"/>
<path d="M33.4492 45.5174C33.4492 45.8565 33.7742 46.1455 34.1441 46.1455C34.5128 46.1455 34.8185 45.8552 34.8185 45.5097C34.8185 45.1641 34.5038 44.8726 34.1364 44.8816C33.7742 44.8816 33.4492 45.1783 33.4492 45.5174Z" fill="black"/>
<path d="M37.1487 35.4968C37.1487 35.1603 36.8327 34.8623 36.4717 34.8623C36.1159 34.8623 35.7871 35.1603 35.7871 35.4891C35.7871 35.8282 36.1031 36.1262 36.464 36.1262C36.8327 36.1352 37.1487 35.8462 37.1487 35.4968Z" fill="black"/>
<path d="M27.7932 44.0413C27.8009 44.3881 28.1168 44.6707 28.4868 44.663C28.8567 44.654 29.1611 44.365 29.1611 44.0259C29.1611 43.6791 28.8567 43.3965 28.4868 43.3862C28.1001 43.3875 27.7842 43.6881 27.7932 44.0413Z" fill="black"/>
<path d="M29.8265 42.0518C29.8265 41.7127 29.5131 41.4237 29.1534 41.416C28.7809 41.416 28.4752 41.6973 28.4572 42.0364C28.4482 42.3974 28.7758 42.6954 29.1598 42.6877C29.5285 42.68 29.8265 42.3884 29.8265 42.0518Z" fill="black"/>
<path d="M36.734 37.5058C36.725 37.1667 36.4001 36.8777 36.0391 36.8854C35.6718 36.8931 35.3648 37.1898 35.3712 37.5302C35.3815 37.877 35.6975 38.1596 36.0674 38.1493C36.4283 38.1339 36.7443 37.8436 36.734 37.5058Z" fill="black"/>
<path d="M32.7749 30.5879C33.1423 30.5879 33.4608 30.3065 33.4608 29.961C33.4608 29.6155 33.1525 29.3329 32.7826 29.3252C32.405 29.3252 32.1057 29.6078 32.1057 29.9533C32.0967 30.3065 32.3972 30.5879 32.7749 30.5879Z" fill="black"/>
<path d="M33.6972 25.1388C33.317 25.1478 33.0203 25.4471 33.0357 25.7914C33.0537 26.1382 33.3684 26.413 33.7383 26.4066C34.107 26.3976 34.414 26.1009 34.3986 25.7541C34.3896 25.4073 34.0659 25.1311 33.6972 25.1388Z" fill="black"/>
<path d="M49.3197 40.1587C49.6909 40.1664 50.0082 39.8774 50.0159 39.5383C50.0249 39.1979 49.7076 38.8922 49.3479 38.8845C48.9806 38.8755 48.662 39.1658 48.6543 39.5036C48.6556 39.8607 48.942 40.1484 49.3197 40.1587Z" fill="black"/>
<path d="M33.2395 28.4773C33.6107 28.4773 33.9138 28.1793 33.9138 27.83C33.9138 27.4857 33.6107 27.2031 33.2318 27.2031C32.8503 27.2031 32.5471 27.4947 32.5548 27.8377C32.5548 28.1883 32.8682 28.4773 33.2395 28.4773Z" fill="black"/>
<path d="M51.043 27.8302C51.043 28.1783 51.3423 28.4673 51.7186 28.4776C52.0911 28.4776 52.4045 28.1873 52.4122 27.8482C52.4238 27.5001 52.1155 27.2111 51.7379 27.2111C51.3615 27.2034 51.0545 27.4873 51.043 27.8302Z" fill="black"/>
<path d="M50.3937 44.1954C50.7624 44.2056 51.0874 43.9115 51.0874 43.5762C51.0989 43.2474 50.7726 42.9391 50.4143 42.9314C50.0508 42.9211 49.7296 43.2204 49.7168 43.5608C49.7168 43.8986 50.0161 44.1876 50.3937 44.1954Z" fill="black"/>
<path d="M50.8163 46.1366C51.1862 46.1366 51.5125 45.8476 51.5125 45.5098C51.5125 45.1784 51.1862 44.8817 50.8253 44.8727C50.4566 44.865 50.1406 45.1566 50.1406 45.5021C50.1406 45.8476 50.4463 46.1366 50.8163 46.1366Z" fill="black"/>
<path d="M49.9094 42.1225C50.2781 42.1302 50.5954 41.8489 50.6018 41.5059C50.6133 41.1643 50.2948 40.8663 49.9261 40.8585C49.5665 40.8508 49.2441 41.1399 49.2325 41.479C49.2261 41.8168 49.5421 42.1148 49.9094 42.1225Z" fill="black"/>
<path d="M52.1853 30.5879C52.5629 30.5879 52.8635 30.3065 52.8635 29.9533C52.8635 29.5975 52.5629 29.3252 52.1853 29.3252C51.8089 29.3329 51.502 29.6155 51.502 29.961C51.502 30.3065 51.8089 30.5879 52.1853 30.5879Z" fill="black"/>
<path d="M51.2581 25.1388C50.8856 25.1311 50.5619 25.4073 50.5452 25.7541C50.5349 26.0906 50.8445 26.3899 51.2131 26.4066C51.592 26.4143 51.908 26.1382 51.9157 25.7914C51.9337 25.4471 51.6344 25.1465 51.2581 25.1388Z" fill="black"/>
<path d="M36.6232 31.6836C36.6155 32.0304 36.9148 32.3233 37.2834 32.331C37.6508 32.3387 37.9693 32.0548 37.977 31.7106C37.986 31.3612 37.679 31.0722 37.3078 31.0645C36.9507 31.0645 36.6309 31.3381 36.6232 31.6836Z" fill="black"/>
<path d="M39.143 25.9635C39.152 25.6218 38.836 25.3238 38.4738 25.3161C38.1154 25.3084 37.7917 25.5987 37.7814 25.9352C37.7724 26.2756 38.0897 26.5723 38.4507 26.5826C38.8193 26.589 39.143 26.3 39.143 25.9635Z" fill="black"/>
<path d="M34.7949 29.217C34.7949 29.8297 35.2265 30.3203 35.7621 30.3203C36.2978 30.3203 36.7281 29.8284 36.7281 29.217C36.7281 29.154 36.7204 29.0898 36.7101 29.0243L36.0704 26.9293C36.0704 26.9036 36.0704 26.8895 36.0627 26.8638C35.9612 26.8959 35.8585 26.9113 35.7532 26.9113C35.6453 26.9113 35.5425 26.8959 35.4449 26.8638C35.4449 26.8792 35.4449 26.9036 35.4346 26.9293L34.7949 29.0243C34.8026 29.0911 34.7949 29.1553 34.7949 29.217Z" fill="black"/>
<path d="M37.0353 29.7822C37.0276 30.1303 37.3294 30.4193 37.7032 30.427C38.0745 30.4373 38.3879 30.1444 38.3981 29.8079C38.4097 29.4675 38.1014 29.1708 37.7289 29.1631C37.35 29.1618 37.0443 29.4367 37.0353 29.7822Z" fill="black"/>
<path d="M37.4453 27.8658C37.4543 28.2113 37.7716 28.4926 38.1415 28.4926C38.5102 28.4849 38.8171 28.1946 38.8094 27.8478C38.8017 27.51 38.4729 27.2107 38.1145 27.2184C37.7536 27.2287 37.4453 27.5254 37.4453 27.8658Z" fill="black"/>
<path d="M35.7625 26.5891C35.8589 26.5891 35.9475 26.566 36.0271 26.5365C36.2275 26.4465 36.3688 26.2526 36.3688 26.0342C36.3688 25.7285 36.0952 25.478 35.7625 25.478C35.4273 25.478 35.1562 25.7272 35.1562 26.0342C35.1562 26.2526 35.2975 26.4453 35.4992 26.5365C35.5776 26.5737 35.6662 26.5891 35.7625 26.5891Z" fill="black"/>
<path d="M36.0784 80.3241C36.4638 80.3331 36.799 80.0351 36.799 79.6819C36.799 79.3428 36.5177 79.0679 36.1555 79.0602C35.7791 79.0525 35.4439 79.3518 35.4336 79.705C35.4336 80.0351 35.7252 80.3151 36.0784 80.3241Z" fill="black"/>
<path d="M21.4621 59.4782C21.0845 59.4705 20.7402 59.7762 20.7402 60.1256C20.7402 60.4724 21.0485 60.7537 21.4236 60.7537C21.8141 60.7537 22.1288 60.4544 22.1223 60.0922C22.1121 59.762 21.8205 59.4859 21.4621 59.4782Z" fill="black"/>
<path d="M70.7678 68.9835C70.7858 69.0888 70.8282 69.1903 70.9104 69.3046C71.0478 69.5063 70.9926 69.8133 71.0337 70.1267C69.3356 68.7086 67.7878 69.2404 66.8462 70.6983C66.7936 70.5968 66.7512 70.5146 66.7062 70.4247C66.1513 69.2468 65.2239 68.4119 63.9291 67.9443C62.7102 67.4973 61.5477 67.7568 60.6781 68.6367C59.8046 69.5153 59.6325 70.6353 60.2118 71.7066C60.6331 72.4876 61.2959 73.0271 62.181 73.3122C62.8527 73.528 63.5078 73.4805 64.0448 73.0142C64.5919 72.539 64.7191 71.9327 64.5817 71.1838C64.4481 71.3675 64.3607 71.4908 64.2734 71.6116C63.8868 72.1254 63.3858 72.3129 62.7705 72.169C62.0936 72.0149 61.6543 71.5782 61.5939 70.9822C61.5233 70.2962 61.784 69.7246 62.3839 69.3149C62.9439 68.9154 63.5451 69.0066 64.1526 69.2571C65.924 69.9982 66.3209 71.5615 65.0903 72.941C64.0949 74.0521 62.2426 74.5852 60.7577 74.1266C59.9549 73.8774 59.3358 73.3456 58.7809 72.7715C57.7495 71.6976 56.8811 70.4979 56.1695 69.2237C55.4849 68.0073 55.0186 66.7022 54.2377 65.5321C53.4721 64.3863 52.4625 63.387 51.2397 62.6381C49.6739 61.6786 47.9629 61.1853 46.0811 61.509C45.4055 61.6221 44.7645 61.9188 44.1043 62.1294C44.0221 61.8944 43.9168 61.6067 43.8037 61.2907C44.1403 61.0723 44.0953 60.8462 43.7241 60.6549C45.042 59.8636 45.4582 58.6639 45.6161 57.3588C45.6765 56.8168 45.6585 56.2619 45.5982 55.7224C45.5532 55.3512 45.6161 55.0301 45.7741 54.6987C46.5641 53.0635 47.5455 51.5632 49.1472 50.4842C49.9564 49.9319 50.862 49.5812 51.8909 49.6442C53.0842 49.7174 53.9846 50.307 54.605 51.1997C55.1368 51.9601 55.571 52.7732 55.9871 53.585C56.5921 54.7719 57.1008 56.005 58.0346 57.0197C58.3763 57.3987 58.7642 57.7622 59.1855 58.0602C60.3968 58.9221 61.6993 58.9323 62.9439 58.109C63.8701 57.504 64.5675 56.714 65.1096 55.8187C65.5836 55.0365 65.9702 54.208 66.4121 53.4013C66.4622 53.2999 66.5405 53.1945 66.6459 53.1264C66.7358 53.0699 66.8141 53.016 66.8848 52.9492C66.3607 53.0288 65.8058 53.0776 65.2419 53.0776C64.4134 53.0776 63.626 52.9916 62.8861 52.813C62.9465 52.9415 63.1071 53.0468 63.373 53.1842C63.4834 53.2498 63.6337 53.3602 63.644 53.4655C63.739 54.4919 63.7146 55.4976 63.2407 56.4571C62.4404 58.0717 60.5586 58.3595 59.2497 57.0608C59.0237 56.8348 58.8387 56.5779 58.6499 56.3287C57.8728 55.2317 57.4836 53.9832 57.0764 52.7411C56.7604 51.7675 56.4637 50.7835 56.0077 49.8651C55.6994 49.2344 55.2152 48.6397 54.6808 48.1375C53.1857 46.7451 51.0598 46.6128 49.3014 47.7354C48.2108 48.4265 47.4388 49.3642 46.8737 50.4431C46.347 51.4515 45.8743 52.4752 45.3785 53.4977C45.3387 53.5927 45.286 53.698 45.1961 53.8766C45.0625 53.5375 44.9418 53.2806 44.8519 53.0057C44.5179 51.9743 44.166 50.9505 43.8769 49.9011C43.683 49.1843 43.796 48.4676 44.1852 47.7971C44.2469 47.6956 44.2906 47.589 44.3394 47.485C44.6772 46.8645 44.8249 46.2506 44.175 45.7278C44.6836 44.8723 44.6309 44.767 43.5854 44.4934C44.5873 42.6154 44.5988 40.7452 43.5417 38.8673C44.3779 37.8526 44.4113 37.4492 43.7267 36.4871C43.8667 36.3266 44.0375 36.1647 44.1416 35.9798C44.2469 35.7768 44.3689 35.543 44.3535 35.3427C44.3162 35.0369 44.3162 34.8032 44.5988 34.5745C44.6682 34.5193 44.5179 34.2303 44.4742 34.0453C44.437 34.053 44.4036 34.053 44.3676 34.053C44.4819 33.8989 44.5988 33.7473 44.7119 33.5945C45.4415 32.5861 45.6072 31.4828 45.2655 30.346C44.9932 29.461 44.6772 28.5721 44.2546 27.7359C43.85 26.9292 43.7652 26.1367 43.9309 25.2915C44.0542 24.6724 44.1852 24.0417 44.3394 23.4316C44.4588 22.9961 44.4049 22.6403 43.999 22.3436C43.9142 22.2781 43.859 22.0931 43.8936 21.9968C44.5166 20.1985 46.4883 19.0771 48.4896 19.3661C49.8524 19.5601 50.8273 20.4284 50.9853 21.6243C51.029 21.9069 51.011 22.2126 50.9224 22.4887C50.6051 23.4945 49.3219 23.8002 48.4973 23.0835C48.2134 22.8497 48.04 22.5671 47.9539 22.2537C48.2969 22.2794 48.6283 22.2062 48.8839 21.9557C49.8408 21.0193 48.5319 19.6423 47.3464 20.169C47.1087 20.2704 46.8801 20.4503 46.7234 20.6506C45.9681 21.6166 46.0991 23.0912 46.9173 23.9955C47.864 25.0282 49.6225 24.8175 50.704 23.9955C53.2769 22.0289 51.3527 18.458 48.3136 18.3129C48.0182 18.2949 47.7163 18.3129 47.4183 18.3129C47.4003 18.273 47.381 18.2319 47.3631 18.1896C47.7523 17.9982 48.1389 17.8055 48.523 17.6102C49.0701 17.3444 49.6289 15.821 50.1607 15.5229H34.7866C35.3132 15.821 35.8771 17.3444 36.4205 17.6102C36.8084 17.7965 37.1937 17.9982 37.5791 18.1896C37.5624 18.2307 37.547 18.2718 37.5264 18.3129C37.2284 18.3129 36.9304 18.2949 36.6311 18.3129C34.7596 18.4002 33.3094 19.5781 33.0628 21.221C32.8971 22.3128 33.5047 23.5189 34.4693 24.1483C35.4635 24.8021 36.9137 24.9781 37.836 24.1881C38.8469 23.3262 39.0408 21.6821 38.238 20.6506C38.0813 20.4503 37.854 20.2704 37.6163 20.169C36.5117 19.6719 35.3582 20.7316 35.9375 21.7463C36.1559 22.1342 36.5335 22.3333 36.9574 22.3821C36.8521 22.6403 36.6941 22.8754 36.4552 23.077C35.6202 23.7848 34.3422 23.4791 34.03 22.4798C33.9491 22.2062 33.9324 21.9005 33.9658 21.6166C34.1277 20.4143 35.1 19.555 36.4629 19.361C38.4667 19.0771 40.4268 20.1908 41.0613 21.9878C41.096 22.0931 41.0421 22.2691 40.9547 22.3333C40.5501 22.6262 40.4962 22.9871 40.6105 23.4239C40.771 24.0366 40.9021 24.6634 41.0215 25.2877C41.2014 26.1329 41.1024 26.9202 40.6991 27.7282C40.2778 28.558 39.9605 29.4533 39.6882 30.3408C39.3453 31.4853 39.5097 32.5797 40.2444 33.588C40.3497 33.7409 40.473 33.8937 40.5861 34.0466C40.5501 34.0389 40.5154 34.0389 40.4795 34.0389C40.4358 34.2251 40.2868 34.5129 40.3574 34.5694C40.6375 34.7955 40.6375 35.0292 40.6028 35.3362C40.5758 35.5443 40.7055 35.7781 40.8122 35.9733C40.9175 36.1596 41.087 36.3202 41.2232 36.482C40.5321 37.4415 40.5681 37.8448 41.4107 38.8609C40.3562 40.7388 40.3639 42.6077 41.3671 44.487C40.3202 44.7605 40.2675 44.8659 40.7788 45.7188C40.125 46.2429 40.2765 46.8581 40.6092 47.4772C40.6606 47.5826 40.7043 47.6879 40.7698 47.7907C41.1538 48.4586 41.2771 49.1702 41.078 49.8947C40.7839 50.9377 40.4332 51.9653 40.1005 52.9993C40.0132 53.2742 39.8886 53.5311 39.7576 53.8702C39.6702 53.6916 39.6227 53.5863 39.5701 53.4912C39.0807 52.4765 38.6054 51.4438 38.0775 50.4367C37.5149 49.3565 36.7429 48.4201 35.6536 47.7277C33.8952 46.6077 31.7758 46.7374 30.2742 48.1298C29.7463 48.6307 29.253 49.2267 28.9473 49.8561C28.4887 50.7745 28.1895 51.7572 27.876 52.7334C27.4791 53.9742 27.0835 55.224 26.2987 56.3184C26.115 56.5779 25.93 56.8348 25.7014 57.0531C24.3848 58.3428 22.5133 58.0602 21.7644 56.4481C21.2905 55.4899 21.2635 54.4816 21.3611 53.4578C21.3688 53.3525 21.5191 53.2292 21.6347 53.1753C21.9006 53.0455 22.0547 52.9338 22.1202 52.8053C21.3817 52.9813 20.5801 53.0699 19.7645 53.0699C19.2019 53.0699 18.6457 53.0211 18.119 52.9402C18.1807 52.998 18.2693 53.0635 18.3567 53.1187C18.4543 53.1842 18.5416 53.2883 18.5956 53.3936C19.0233 54.199 19.4202 55.0301 19.8968 55.8136C20.4401 56.7063 21.135 57.4963 22.0573 58.1013C23.3148 58.9169 24.6057 58.9169 25.8196 58.0538C26.2409 57.7455 26.6314 57.391 26.9705 57.0133C27.903 55.9896 28.4142 54.7629 29.0192 53.5773C29.4303 52.7642 29.8709 51.9486 30.4001 51.192C31.0141 50.2993 31.9209 49.7097 33.1116 49.6378C34.1431 49.5812 35.0486 49.9281 35.8566 50.474C37.4545 51.5555 38.4397 53.0545 39.2322 54.691C39.3889 55.0198 39.4506 55.3435 39.4069 55.7147C39.3465 56.2542 39.3273 56.8104 39.3889 57.3498C39.5495 58.6575 39.9515 59.8572 41.2784 60.6459C40.9085 60.8385 40.8751 61.0723 41.2014 61.283C41.087 61.6067 40.9894 61.888 40.9021 62.1217C40.2444 61.9111 39.6009 61.6131 38.9252 61.5013C37.0345 61.1776 35.3274 61.6696 33.7667 62.6304C32.5529 63.3793 31.542 64.3786 30.7649 65.5231C29.9762 66.692 29.5202 67.997 28.8356 69.2134C28.1201 70.4902 27.2608 71.6899 26.2255 72.7625C25.6693 73.3354 25.0463 73.8658 24.2486 74.1176C22.7612 74.5762 20.9051 74.0431 19.9135 72.932C18.6855 71.5538 19.0875 69.9893 20.8524 69.2468C21.4613 68.9989 22.0573 68.9154 22.6212 69.3046C23.2082 69.7234 23.4831 70.2885 23.4124 70.9745C23.3482 71.5717 22.9115 71.9969 22.2333 72.1588C21.6257 72.3039 21.1196 72.1189 20.7304 71.6013C20.6431 71.4793 20.5557 71.3598 20.4247 71.1748C20.2847 71.9237 20.4131 72.5274 20.9591 73.0052C21.496 73.4715 22.1549 73.5203 22.8216 73.302C23.7104 73.0129 24.3668 72.4722 24.7894 71.6976C25.3726 70.6264 25.194 69.5063 24.3257 68.6264C23.4535 67.7478 22.3039 67.4896 21.0747 67.9341C19.7825 68.4003 18.8512 69.2391 18.2976 70.4157C18.2552 70.5056 18.2077 70.5878 18.155 70.6906C17.216 69.2314 15.6682 68.6996 13.9727 70.1216C14.0177 69.8043 13.9637 69.4986 14.096 69.2956C14.1757 69.1826 14.2206 69.0785 14.236 68.9732C13.509 69.1518 12.7165 69.2391 11.9085 69.2391C11.2714 69.2391 10.6664 69.1826 10.0781 69.0785C10.1192 69.2571 10.2695 69.3765 10.6048 69.5063C10.7294 69.5551 10.8784 69.5705 10.9927 69.636C11.1507 69.7324 11.3536 69.8223 11.4307 69.9661C12.3902 71.7169 13.7376 73.1581 15.4756 74.2859C17.5076 75.5999 19.7362 76.3102 22.2435 75.9172C25.3957 75.4226 27.7168 73.7464 29.4136 71.329C30.1894 70.2243 30.7058 69.0066 31.3737 67.8557C32.3602 66.155 33.5175 64.5109 35.1591 63.2765C35.8656 62.7537 36.6376 62.3427 37.5598 62.2117C38.4384 62.0935 39.52 62.448 39.9413 63.017C39.5546 63.017 39.1847 63.0119 38.8161 63.017C38.5091 63.017 38.1224 62.9066 37.9477 63.2225C37.7692 63.5514 38.0518 63.8173 38.2342 64.0832C38.2804 64.1487 38.3408 64.2039 38.3947 64.2591C39.0537 64.9463 39.8167 65.5038 40.7775 65.7992C41.019 65.8802 41.1294 65.9778 41.0588 66.2116C40.8289 66.9681 40.6259 67.726 40.3883 68.4761C40.1532 69.2494 39.6702 69.8788 38.9933 70.3695C38.22 70.9359 37.3042 70.9359 36.5849 70.3951C35.9003 69.8801 35.6703 68.8807 36.0672 68.1383C36.4526 67.4203 37.7178 67.1492 38.4114 67.6309C38.7647 67.8788 38.9137 68.3464 38.7557 68.7266C38.6067 69.0811 38.1777 69.3252 37.7628 69.2841C37.6754 69.2751 37.5958 69.2597 37.5354 69.2353C37.9131 68.9141 37.7718 68.1743 37.1051 68.1743C36.7172 68.1743 36.5078 68.4157 36.4693 68.6881C36.3318 69.1723 36.7249 69.7426 37.3761 69.8325C38.1134 69.9379 38.7814 69.7362 39.2759 69.1941C39.9361 68.4774 39.7666 67.4472 38.9317 66.9296C38.0441 66.3901 36.7776 66.4209 35.9259 67.0105C35.0474 67.6219 34.7314 68.6213 35.1077 69.6386C35.4879 70.661 36.4359 71.3392 37.4982 71.3457C38.4718 71.3457 39.2541 70.9526 39.967 70.3887C40.2226 70.1871 40.4718 69.9918 40.7338 69.7914C40.8404 69.8788 40.9881 70.0085 41.1114 70.1126C40.6606 70.3797 36.197 73.3777 35.917 73.6937C35.6716 73.9673 35.759 74.1523 36.0236 74.3193C36.4886 74.6121 41.7717 75.0232 42.1223 75.2158C41.9361 75.4483 41.8051 75.7309 42.1056 75.9724C42.3497 76.1741 42.306 76.2961 42.0954 76.4875C41.85 76.7123 41.8552 76.9884 42.1121 77.1991C42.3433 77.3841 42.3227 77.5035 42.1223 77.6911C41.85 77.9325 41.8667 78.1997 42.1326 78.4566C42.2187 78.5375 42.2546 78.6673 42.3137 78.7713C42.2713 78.7533 42.22 78.7302 42.1763 78.7148C41.868 78.9242 41.5263 79.1001 41.2784 79.3596C41.2181 79.4315 41.457 79.7385 41.5623 79.9479C40.3908 80.6659 40.3651 81.9787 41.7074 82.68C41.4801 83.0114 41.3593 83.3814 41.6753 83.6948C41.8076 83.8412 41.886 83.9774 41.9194 84.1161C42.1069 84.0493 42.2893 84.0108 42.5 84.0108C42.7132 84.0108 42.9059 84.0493 43.0818 84.1161C43.1152 83.9684 43.1833 83.8322 43.3259 83.6948C43.6419 83.3814 43.5186 83.0114 43.2887 82.68C44.6361 81.9787 44.6104 80.6659 43.4428 79.9479C43.5456 79.7385 43.7858 79.4226 43.7215 79.3596C43.4775 79.1001 43.1319 78.9242 42.8262 78.7148C42.7838 78.7302 42.7312 78.7533 42.6849 78.7713C42.7453 78.6673 42.7839 78.5375 42.8699 78.4566C43.1332 78.1997 43.1525 77.9415 42.8802 77.6911C42.6785 77.5035 42.6631 77.3841 42.8905 77.1991C43.1525 76.9884 43.1525 76.7059 42.9084 76.4875C42.6952 76.2961 42.6515 76.1741 42.8982 75.9724C43.1987 75.7309 43.0652 75.4483 42.8802 75.2158C43.2296 75.0232 48.514 74.6109 48.9815 74.3193C49.2448 74.16 49.3309 73.9673 49.0856 73.6937C48.8055 73.3777 44.3368 70.3797 43.8911 70.1126C44.0144 70.0085 44.1621 69.8788 44.2687 69.7914C44.532 70.0008 44.7864 70.1871 45.0356 70.3887C45.7485 70.9603 46.5384 71.3457 47.5044 71.3457C48.5679 71.3457 49.5146 70.6687 49.8922 69.6386C50.2724 68.6213 49.9642 67.6219 49.074 67.0105C48.225 66.4145 46.9572 66.3824 46.0683 66.9296C45.2295 67.446 45.0677 68.4774 45.7266 69.1941C46.2186 69.7362 46.8775 69.9302 47.6251 69.8325C48.4074 69.7362 48.83 68.9308 48.3817 68.4145C48.347 68.3721 48.311 68.3412 48.2686 68.3168C48.1607 68.2436 48.0284 68.2038 47.873 68.2038C47.2102 68.2038 47.0599 68.9295 47.4209 69.2597C47.3695 69.2751 47.3078 69.2841 47.2359 69.2918C46.8249 69.329 46.3946 69.0914 46.2443 68.7343C46.0786 68.3451 46.225 67.8891 46.5872 67.6373C47.2821 67.1531 48.5486 67.4267 48.9378 68.146C49.3309 68.8872 49.1035 69.8865 48.4151 70.4029C47.6932 70.9359 46.7825 70.9436 46.0079 70.3785C45.3336 69.8775 44.848 69.2481 44.6117 68.4838C44.3741 67.735 44.1711 66.9745 43.9425 66.2193C43.8718 65.9765 43.9861 65.8789 44.2238 65.8082C45.1704 65.5025 45.9475 64.9528 46.6052 64.2694C46.6579 64.2103 46.7195 64.1551 46.7619 64.0896C46.9546 63.8237 47.2359 63.5578 47.0535 63.2264C46.8762 62.9104 46.4909 63.035 46.1852 63.0273H45.06C45.4826 62.4544 46.5564 62.0973 47.4414 62.2219C48.3637 62.3427 49.1395 62.7601 49.8396 63.2829C51.485 64.5186 52.6462 66.1615 53.6275 67.8621C54.2967 69.0156 54.8144 70.232 55.5864 71.3367C57.2819 73.7541 59.603 75.4226 62.759 75.921C65.265 76.3167 67.4962 75.6089 69.5282 74.2936C71.2687 73.1735 72.6136 71.7207 73.5693 69.9738C73.6425 69.8287 73.8506 69.7323 74.0111 69.6412C74.1242 69.5769 74.2744 69.5615 74.3978 69.514C74.7291 69.3804 74.8794 69.2648 74.9244 69.0875C74.3322 69.189 73.7183 69.2455 73.0978 69.2455C72.2886 69.2468 71.4987 69.1518 70.7678 68.9835ZM14.9412 72.3283C14.4403 71.7798 14.5559 71.1414 15.2225 70.733C15.9354 70.2962 16.8654 70.3784 17.3856 71.0053C17.6746 71.3611 17.9341 71.7952 18.0189 72.2243C18.2372 73.2788 18.7767 74.0932 19.7953 74.6263C19.8223 74.643 19.8454 74.6828 19.925 74.7688C17.911 74.4464 16.2257 73.7387 14.9412 72.3283ZM42.4756 67.1287H41.8282C41.8693 66.7986 41.913 66.4749 41.9502 66.146H42.4756H43.0035C43.0485 66.4749 43.0844 66.7986 43.1268 67.1287H42.4756ZM70.0279 72.3373C68.746 73.7387 67.0569 74.4477 65.0351 74.7701C65.116 74.6918 65.1327 74.6507 65.1777 74.6353C66.1988 74.1022 66.7332 73.2891 66.9516 72.2333C67.0389 71.8055 67.2958 71.3688 67.5861 71.0168C68.105 70.3887 69.0363 70.3065 69.7466 70.7432C70.4171 71.1414 70.5366 71.7798 70.0279 72.3373Z" fill="black"/>
<path d="M31.8086 54.466C31.8086 55.0787 32.2389 55.5681 32.7732 55.5681C33.3089 55.5681 33.7392 55.0774 33.7392 54.466C33.7392 54.4005 33.7302 54.335 33.7225 54.2707L33.0802 52.1757C33.0802 52.1513 33.0802 52.1333 33.07 52.1128C32.9749 52.1436 32.867 52.1603 32.7617 52.1603C32.6589 52.1603 32.5536 52.1436 32.456 52.1128V52.1757L31.8137 54.2707C31.8124 54.335 31.8086 54.4005 31.8086 54.466Z" fill="black"/>
<path d="M69.9923 80.8486C69.9923 81.1967 70.3289 81.4922 70.7168 81.4922C71.1008 81.4922 71.3911 81.2186 71.3911 80.8666C71.3834 80.5121 71.0546 80.2192 70.668 80.2192C70.3006 80.2192 69.9846 80.5108 69.9923 80.8486Z" fill="black"/>
<path d="M77.6732 73.5136C77.6732 73.4314 77.6629 73.3595 77.6552 73.2876L76.8999 70.8111C76.8999 70.7623 76.8896 70.7212 76.8896 70.6826C76.774 70.7147 76.661 70.7404 76.539 70.7404C76.4182 70.7404 76.2936 70.7147 76.1883 70.6826C76.1883 70.7199 76.1806 70.7725 76.1806 70.8111L75.4253 73.2876C75.3983 73.3595 75.3906 73.4301 75.3906 73.5136C75.3906 74.2394 75.898 74.82 76.5325 74.82C77.1671 74.82 77.6732 74.2304 77.6732 73.5136Z" fill="black"/>
<path d="M29.6183 63.1395C29.6273 62.7786 29.3383 62.5024 28.9491 62.5024C28.5791 62.5024 28.2619 62.794 28.2542 63.1318C28.2439 63.4787 28.5599 63.769 28.9285 63.7767C29.301 63.769 29.608 63.4864 29.6183 63.1395Z" fill="black"/>
<path d="M24.6609 63.332C24.6532 63.0006 24.3437 62.7348 23.9853 62.7271C23.5987 62.7271 23.2737 63.0263 23.2814 63.3809C23.2917 63.7277 23.5987 64.009 23.9763 64.009C24.3527 64.0026 24.6776 63.6789 24.6609 63.332Z" fill="black"/>
<path d="M31.7972 61.9875C31.8088 61.6394 31.4967 61.3491 31.1203 61.3491C30.7427 61.3491 30.4357 61.6317 30.4357 61.9772C30.428 62.324 30.7337 62.6221 31.1049 62.6169C31.4723 62.6221 31.7972 62.324 31.7972 61.9875Z" fill="black"/>
<path d="M26.9806 63.5875C26.9716 63.2432 26.6569 62.9632 26.287 62.9683C25.9273 62.9786 25.619 63.2753 25.6113 63.6144C25.6113 63.9612 25.9196 64.2503 26.287 64.2503C26.6646 64.2503 26.9922 63.9471 26.9806 63.5875Z" fill="black"/>
<path d="M21.6818 61.9772C21.6728 62.3189 21.9811 62.622 22.3421 62.6323C22.7197 62.64 23.0537 62.3343 23.0537 61.9772C23.0537 61.6304 22.7454 61.3491 22.369 61.3491C21.9978 61.3491 21.6908 61.6317 21.6818 61.9772Z" fill="black"/>
<path d="M72.355 81.7271C71.9786 81.736 71.6523 82.0251 71.6523 82.3873C71.6523 82.6455 71.818 82.8728 72.0557 82.9846C72.1507 83.0257 72.2586 83.0501 72.3614 83.0501C72.4667 83.0501 72.5849 83.0257 72.6697 82.9846C72.906 82.8805 73.0756 82.6557 73.0756 82.3873C73.0781 82.0263 72.7493 81.7271 72.355 81.7271Z" fill="black"/>
<path d="M70.1047 82.3487C70.0944 81.9955 69.7707 81.7026 69.3815 81.7026C69.0154 81.7026 68.6995 81.9955 68.7072 82.332C68.7072 82.6866 69.0411 82.9768 69.4303 82.9768C69.8144 82.9768 70.1047 82.702 70.1047 82.3487Z" fill="black"/>
<path d="M70.8008 78.9783C70.8085 79.3341 71.1373 79.6321 71.5214 79.6321C71.89 79.6321 72.206 79.3354 72.1957 78.9937C72.188 78.6469 71.8566 78.3438 71.4751 78.3438C71.1001 78.3502 70.8008 78.6315 70.8008 78.9783Z" fill="black"/>
<path d="M68.7791 80.269L68.0238 77.7951C68.0238 77.7463 68.0109 77.7052 68.0109 77.6641C67.903 77.6949 67.7849 77.7206 67.6641 77.7206C67.5408 77.7206 67.4162 77.6949 67.3109 77.6641C67.3109 77.7039 67.3006 77.7527 67.3006 77.7951L66.5453 80.269C66.5351 80.3409 66.5273 80.4206 66.5273 80.4938C66.5273 81.2182 67.036 81.8001 67.6718 81.8001C68.2794 81.8001 68.7958 81.2118 68.7958 80.4938C68.797 80.4142 68.7868 80.3397 68.7791 80.269Z" fill="black"/>
<path d="M67.6534 77.3922C67.7665 77.3922 67.8744 77.3652 67.9617 77.3254C68.2006 77.2201 68.365 76.994 68.365 76.7294C68.365 76.3659 68.0413 76.0679 67.6444 76.0679C67.2501 76.0679 66.9238 76.3646 66.9238 76.7294C66.9238 76.9863 67.0895 77.2136 67.3259 77.3254C67.4351 77.3665 67.543 77.3922 67.6534 77.3922Z" fill="black"/>
<path d="M72.7314 83.3237C72.6184 83.3558 72.5028 83.3802 72.3833 83.3802C72.26 83.3802 72.1354 83.3558 72.0301 83.3237C72.0301 83.3635 72.0224 83.4111 72.0224 83.4535L71.2671 85.9287C71.2594 86.0006 71.2466 86.0815 71.2466 86.1547C71.2286 86.8792 71.7385 87.4611 72.3705 87.4611C73.0076 87.4611 73.515 86.8728 73.515 86.1547C73.515 86.0738 73.5073 86.0006 73.497 85.9287L72.7443 83.4535C72.7443 83.4034 72.7314 83.3635 72.7314 83.3237Z" fill="black"/>
<path d="M71.7658 73.754C71.3921 73.781 71.1082 74.07 71.139 74.4143C71.1621 74.7688 71.5051 75.0527 71.8917 75.0295C72.2629 75.0064 72.5519 74.6981 72.534 74.3603C72.507 74.0135 72.155 73.7386 71.7658 73.754Z" fill="black"/>
<path d="M72.0531 76.2781C71.6742 76.2678 71.3659 76.5517 71.3556 76.8972C71.3479 77.2453 71.6819 77.56 72.0608 77.5665C72.4397 77.5754 72.7351 77.3031 72.748 76.946C72.748 76.5761 72.4397 76.2858 72.0531 76.2781Z" fill="black"/>
<path d="M50.5971 58.5757C50.2272 58.5757 49.9202 58.8673 49.9279 59.2205C49.9407 59.5763 50.2362 59.8396 50.6151 59.8396C50.9953 59.8396 51.292 59.5609 51.2817 59.2051C51.2804 58.866 50.9657 58.5757 50.5971 58.5757Z" fill="black"/>
<path d="M67.6533 82.8489C67.2692 82.8386 66.9609 83.1058 66.9609 83.4616C66.9609 83.8149 67.2872 84.1231 67.6738 84.1231C68.0502 84.1231 68.3508 83.8316 68.3392 83.477C68.3315 83.1302 68.0348 82.8566 67.6533 82.8489Z" fill="black"/>
<path d="M55.338 63.1388C55.3483 63.4869 55.6565 63.7682 56.0252 63.7682C56.3938 63.7682 56.7124 63.4715 56.7021 63.1208C56.6918 62.7843 56.3759 62.4927 56.0072 62.4927C55.6219 62.5017 55.3316 62.7843 55.338 63.1388Z" fill="black"/>
<path d="M52.3355 60.1554C51.9669 60.1477 51.6406 60.447 51.6406 60.7848C51.6406 61.1226 51.9566 61.4219 52.3265 61.4296C52.7055 61.4373 53.0137 61.156 53.0137 60.8028C53.0137 60.465 52.7055 60.1631 52.3355 60.1554Z" fill="black"/>
<path d="M53.1643 61.9875C53.1746 62.324 53.488 62.6169 53.8592 62.6169C54.2279 62.6169 54.5336 62.3228 54.5272 61.9772C54.5207 61.6317 54.2112 61.3491 53.84 61.3491C53.4559 61.3491 53.154 61.6394 53.1643 61.9875Z" fill="black"/>
<path d="M75.8047 69.7478C75.8047 70.006 75.9678 70.2321 76.208 70.3451C76.3134 70.3862 76.4187 70.4106 76.5317 70.4106C76.6447 70.4106 76.7526 70.3862 76.84 70.3451C77.0763 70.2423 77.242 70.0163 77.242 69.7478C77.242 69.383 76.9183 69.0889 76.5214 69.0889C76.1284 69.0889 75.8047 69.383 75.8047 69.7478Z" fill="black"/>
<path d="M46.9674 55.658C46.9841 55.9958 47.3168 56.2784 47.679 56.2617C48.0463 56.254 48.3469 55.9559 48.3302 55.6091C48.3032 55.2623 47.986 54.9874 47.616 55.0041C47.2474 55.0118 46.952 55.3188 46.9674 55.658Z" fill="black"/>
<path d="M78.7964 65.5249H75.056H74.7027H74.5602H71.715H71.4761H71.1254H67.0215C67.0318 66.9674 68.5873 68.2018 70.785 68.695C71.4478 68.8389 72.162 68.9172 72.9096 68.9172C73.7098 68.9172 74.4857 68.8222 75.178 68.6616C77.3038 68.153 78.7964 66.9378 78.7964 65.5249Z" fill="black"/>
<path d="M48.4062 57.5775C48.4062 57.9243 48.712 58.2146 49.0832 58.2223C49.4531 58.23 49.7678 57.9397 49.7768 57.6019C49.7768 57.264 49.4595 56.966 49.1024 56.9583C48.7222 56.9468 48.4062 57.2396 48.4062 57.5775Z" fill="black"/>
<path d="M52.1851 51.8375C52.284 51.8375 52.3726 51.8143 52.4497 51.7822C52.6501 51.6936 52.7926 51.4984 52.7926 51.28C52.7926 50.9743 52.5203 50.7251 52.1851 50.7251C51.8511 50.7251 51.5801 50.973 51.5801 51.28C51.5801 51.4984 51.7175 51.6923 51.9218 51.7822C52.0014 51.8143 52.0913 51.8375 52.1851 51.8375Z" fill="black"/>
<path d="M58.665 62.9683C58.2938 62.9632 57.9778 63.2445 57.965 63.5875C57.9573 63.9458 58.2835 64.2503 58.665 64.2503C59.0337 64.2503 59.3394 63.96 59.333 63.6144C59.3407 63.2753 59.0337 62.9786 58.665 62.9683Z" fill="black"/>
<path d="M37.9909 55.6584C38.0101 55.318 37.7019 55.0123 37.3422 55.0046C36.9723 54.9956 36.655 55.2705 36.6396 55.6096C36.6203 55.9564 36.9119 56.2544 37.2895 56.2621C37.6415 56.2801 37.9742 55.9962 37.9909 55.6584Z" fill="black"/>
<path d="M36.5521 57.5774C36.5521 57.2396 36.2259 56.948 35.8572 56.9583C35.4976 56.966 35.1777 57.264 35.1777 57.6018C35.1777 57.9409 35.5079 58.2299 35.8752 58.2222C36.2452 58.2145 36.5521 57.9229 36.5521 57.5774Z" fill="black"/>
<path d="M32.7755 51.8375C32.8693 51.8375 32.9592 51.8143 33.0389 51.7822C33.2405 51.6936 33.3844 51.4984 33.3844 51.28C33.3844 50.9743 33.1134 50.7251 32.7755 50.7251C32.4428 50.7251 32.168 50.973 32.168 51.28C32.168 51.4984 32.308 51.6923 32.5122 51.7822C32.5893 51.8143 32.6766 51.8375 32.7755 51.8375Z" fill="black"/>
<path d="M34.3386 59.8396C34.7162 59.8396 35.0142 59.5686 35.0219 59.2205C35.0335 58.8737 34.7239 58.5834 34.3553 58.5757C33.993 58.5757 33.6771 58.8673 33.6681 59.2051C33.6617 59.5609 33.9507 59.8396 34.3386 59.8396Z" fill="black"/>
<path d="M31.9473 60.8028C31.9473 61.156 32.2555 61.4296 32.6332 61.4296C33.0031 61.4219 33.3178 61.1226 33.3178 60.7848C33.3178 60.4457 32.9928 60.1477 32.6242 60.1554C32.2555 60.1631 31.9473 60.465 31.9473 60.8028Z" fill="black"/>
<path d="M64.2188 60.1339C64.2188 59.7781 63.872 59.4788 63.4944 59.4865C63.136 59.4967 62.847 59.7691 62.8341 60.1017C62.8264 60.4653 63.1424 60.771 63.5316 60.7633C63.9002 60.762 64.2188 60.4717 64.2188 60.1339Z" fill="black"/>
<path d="M60.2898 63.3322C60.2718 63.6791 60.6083 64.0015 60.9744 64.0092C61.343 64.0194 61.659 63.7266 61.6667 63.3811C61.6796 63.0163 61.3507 62.7183 60.9667 62.7272C60.6083 62.735 60.3077 63.0008 60.2898 63.3322Z" fill="black"/>
<path d="M61.8984 61.9772C61.8984 62.324 62.2427 62.64 62.6113 62.6323C62.9723 62.622 63.2793 62.324 63.269 61.9772C63.2613 61.6304 62.9556 61.3568 62.5741 61.3491C62.217 61.3491 61.8984 61.6317 61.8984 61.9772Z" fill="black"/>
<path d="M53.1356 54.2698L52.4947 52.1748C52.4947 52.1504 52.4947 52.1324 52.4844 52.1118C52.3893 52.1426 52.2853 52.1593 52.1774 52.1593C52.0721 52.1593 51.968 52.1426 51.8704 52.1118C51.8704 52.1272 51.8704 52.1504 51.8614 52.1748L51.2204 54.2698C51.2114 54.3353 51.2012 54.4008 51.2012 54.465C51.2012 55.0777 51.6328 55.5671 52.1697 55.5671C52.7066 55.5671 53.1343 55.0764 53.1343 54.465C53.1523 54.4008 53.1472 54.3353 53.1356 54.2698Z" fill="black"/>
<path d="M58.4202 84.7171C58.4356 85.0703 58.7811 85.3619 59.16 85.3439C59.5184 85.3285 59.7894 85.0549 59.7894 84.7171C59.7894 84.3625 59.458 84.0632 59.0791 84.0709C58.7105 84.0799 58.4099 84.3805 58.4202 84.7171Z" fill="black"/>
<path d="M59.8846 77.8981C59.5339 77.907 59.2346 78.1794 59.2346 78.512C59.2243 78.8678 59.5429 79.1723 59.927 79.1813C60.3059 79.1813 60.6065 78.8987 60.6065 78.5531C60.5872 78.1871 60.2584 77.8916 59.8846 77.8981Z" fill="black"/>
<path d="M59.5449 86.8948C59.5449 87.1928 59.7376 87.4586 60.0086 87.5794C60.114 87.6282 60.2373 87.6539 60.3696 87.6539C60.5006 87.6539 60.6149 87.6282 60.7279 87.5794C61.0067 87.4586 61.1942 87.2005 61.1942 86.8948C61.1942 86.4747 60.8256 86.1382 60.3683 86.1382C59.911 86.1382 59.5449 86.4747 59.5449 86.8948Z" fill="black"/>
<path d="M55.9227 83.5483C55.9227 83.2169 55.617 82.9215 55.2547 82.9035C54.8758 82.8881 54.5624 83.1527 54.5495 83.4995C54.5316 83.8476 54.8578 84.1687 55.2342 84.1687C55.6054 84.179 55.9227 83.8874 55.9227 83.5483Z" fill="black"/>
<path d="M65.1253 84.372C65.133 84.7111 65.449 84.9898 65.8176 84.9898C66.1991 84.9898 66.5048 84.7098 66.5048 84.363C66.5048 84.0097 66.1606 83.7104 65.7842 83.7194C65.4079 83.7259 65.115 84.0161 65.1253 84.372Z" fill="black"/>
<path d="M49.5042 79.7035C49.5042 79.3502 49.1716 79.0432 48.7862 79.0587C48.4304 79.0677 48.1504 79.3425 48.1504 79.6804C48.1504 80.0336 48.4856 80.3393 48.8633 80.3226C49.2165 80.3149 49.5132 80.0349 49.5042 79.7035Z" fill="black"/>
<path d="M56.4152 77.1106C56.0389 77.1016 55.7383 77.3829 55.7383 77.7284C55.7383 78.0739 56.0389 78.3642 56.4075 78.3822C56.7839 78.3989 57.0947 78.124 57.0998 77.7785C57.1101 77.4163 56.8018 77.117 56.4152 77.1106Z" fill="black"/>
<path d="M56.4122 84.2502C56.42 84.5983 56.7205 84.8783 57.0917 84.8975C57.4655 84.913 57.7841 84.6458 57.7841 84.29C57.7918 83.9367 57.4655 83.6285 57.0917 83.6208C56.7218 83.613 56.4045 83.9046 56.4122 84.2502Z" fill="black"/>
<path d="M58.1462 77.6565C57.7776 77.6398 57.4513 77.9211 57.4436 78.2615C57.4333 78.6083 57.7699 78.9307 58.1462 78.9307C58.4994 78.9384 58.8231 78.6391 58.8231 78.3116C58.8231 77.9699 58.5046 77.6732 58.1462 77.6565Z" fill="black"/>
<path d="M49.3131 80.8732C49.2964 81.2188 49.6278 81.5425 50.0093 81.5425C50.3587 81.5425 50.6682 81.2689 50.676 80.9388C50.6862 80.5842 50.36 80.2695 49.981 80.2695C49.6278 80.2695 49.3195 80.5418 49.3131 80.8732Z" fill="black"/>
<path d="M50.8441 72.741C50.4934 72.7461 50.1915 73.0223 50.1838 73.3524C50.1735 73.7069 50.5088 74.0229 50.8839 74.0152C51.2654 74.0036 51.5621 73.7082 51.5441 73.3601C51.5287 73.0223 51.2011 72.7307 50.8441 72.741Z" fill="black"/>
<path d="M51.043 81.9375C51.043 82.2985 51.3782 82.5978 51.7661 82.5875C52.1258 82.5811 52.4135 82.2985 52.4135 81.9684C52.4135 81.6126 52.0718 81.3081 51.6929 81.3146C51.3345 81.3248 51.043 81.6074 51.043 81.9375Z" fill="black"/>
<path d="M55.5368 76.8023C55.5368 76.4632 55.2285 76.1652 54.8689 76.1498C54.4977 76.1318 54.1842 76.4067 54.174 76.7535C54.1663 77.1093 54.4797 77.4163 54.8586 77.4227C55.235 77.4317 55.5368 77.1478 55.5368 76.8023Z" fill="black"/>
<path d="M49.8732 71.3199C49.5135 71.3199 49.2258 71.5935 49.2168 71.9249C49.2168 72.2794 49.5418 72.5941 49.9181 72.5877C50.2701 72.5774 50.5707 72.3051 50.5796 71.9763C50.5861 71.6269 50.2547 71.3135 49.8732 71.3199Z" fill="black"/>
<path d="M53.461 82.0582C53.1026 82.0582 52.8033 82.3408 52.7931 82.6632C52.7866 83.0152 53.1193 83.3235 53.4982 83.3235C53.8566 83.3235 54.1559 83.0499 54.1662 82.721C54.1739 82.3627 53.8374 82.0505 53.461 82.0582Z" fill="black"/>
<path d="M52.1264 73.9248C51.7461 73.9248 51.4507 74.2061 51.4571 74.5619C51.4674 74.9087 51.7834 75.1965 52.1533 75.1965C52.5207 75.1965 52.8392 74.8985 52.8187 74.5516C52.8123 74.2061 52.495 73.9248 52.1264 73.9248Z" fill="black"/>
<path d="M61.3445 84.3062C60.9579 84.3062 60.6599 84.581 60.6702 84.9368C60.6779 85.2901 61.0093 85.5894 61.3908 85.5804C61.7389 85.5727 62.0407 85.2965 62.051 84.9664C62.0574 84.6221 61.7235 84.3062 61.3445 84.3062Z" fill="black"/>
<path d="M42.4737 86.4992C42.6613 86.4992 42.8257 86.4594 42.9824 86.3939C43.3819 86.2153 43.6516 85.8556 43.6516 85.4266C43.6516 85.0246 43.4088 84.6701 43.0569 84.4851C42.8899 84.3965 42.6947 84.3477 42.4866 84.3477C42.2734 84.3477 42.0807 84.3965 41.9137 84.4851C41.554 84.6714 41.3164 85.0143 41.3164 85.4266C41.3164 85.8556 41.5887 86.2256 41.9856 86.3939C42.1244 86.4594 42.3003 86.4992 42.4737 86.4992Z" fill="black"/>
<path d="M62.9619 84.653C62.9413 85.0088 63.2676 85.3146 63.6542 85.3223C64.0434 85.3312 64.3414 85.0577 64.3414 84.7031C64.3414 84.3486 64.0151 84.0493 63.6285 84.0493C63.2676 84.048 62.9721 84.3242 62.9619 84.653Z" fill="black"/>
<path d="M65.2107 76.5942C64.8292 76.5749 64.5081 76.8498 64.5004 77.1979C64.4875 77.5447 64.8164 77.8671 65.203 77.8671C65.5716 77.8736 65.885 77.5833 65.885 77.2365C65.885 76.8986 65.5793 76.6096 65.2107 76.5942Z" fill="black"/>
<path d="M47.4585 77.3032C47.1066 77.3032 46.8086 77.5845 46.7996 77.9069C46.7816 78.2769 47.0976 78.5762 47.4932 78.5684C47.8528 78.5684 48.1431 78.3038 48.1508 77.9647C48.1598 77.6076 47.8361 77.3032 47.4585 77.3032Z" fill="black"/>
<path d="M44.3344 91.5715C44.3344 91.4405 44.3254 91.321 44.31 91.1977L43.0807 87.1515H43.073C43.0615 86.9987 43.0538 86.8574 43.0358 86.7251C42.8598 86.7906 42.6761 86.8227 42.4732 86.8227C42.2715 86.8227 42.0878 86.7906 41.9106 86.7251C41.9029 86.8574 41.8939 86.9987 41.8772 87.1515H41.8669L40.6274 91.1977C40.6197 91.321 40.6094 91.4469 40.6094 91.5715C40.6094 92.7455 41.4443 93.705 42.4719 93.705C43.4995 93.705 44.3344 92.7455 44.3344 91.5715Z" fill="black"/>
<path d="M63.4258 77.3921C63.0598 77.3921 62.7515 77.6888 62.7579 78.0343C62.7682 78.3978 63.1022 78.6869 63.4901 78.674C63.8484 78.656 64.1375 78.3734 64.1375 78.0523C64.1387 77.7042 63.7971 77.3921 63.4258 77.3921Z" fill="black"/>
<path d="M38.7829 75.7239C38.4245 75.7406 38.115 76.0386 38.1252 76.3751C38.1252 76.7232 38.4502 76.9955 38.8189 76.9814C39.1785 76.966 39.4868 76.668 39.4791 76.3289C39.4675 75.9808 39.1516 75.7072 38.7829 75.7239Z" fill="black"/>
<path d="M38.1659 77.921C38.1607 77.5832 37.8614 77.3096 37.5108 77.3096C37.1319 77.3096 36.8069 77.6127 36.8146 77.9685C36.8261 78.3102 37.1152 78.5671 37.4735 78.5748C37.8602 78.5748 38.18 78.2768 38.1659 77.921Z" fill="black"/>
<path d="M53.4998 76.3833C53.8582 76.373 54.1472 76.093 54.1472 75.7603C54.1472 75.4083 53.8133 75.1014 53.4266 75.1168C53.0683 75.1245 52.7754 75.3994 52.7754 75.7385C52.7754 76.0943 53.1106 76.4 53.4998 76.3833Z" fill="black"/>
<path d="M46.175 75.7239C45.7986 75.7072 45.4929 75.9808 45.4826 76.3289C45.4736 76.668 45.7806 76.966 46.1416 76.9814C46.5102 76.9968 46.8365 76.7129 46.8455 76.3751C46.8455 76.045 46.5385 75.7393 46.175 75.7239Z" fill="black"/>
<path d="M60.801 88.1123C60.7933 88.0391 60.7933 87.9749 60.7804 87.9106C60.6571 87.9492 60.5197 87.9749 60.3784 87.9749C60.2358 87.9749 60.0945 87.9492 59.9725 87.9106C59.9622 87.9749 59.9622 88.0468 59.9519 88.1123L59.0849 90.9664C59.0669 91.0538 59.0669 91.1437 59.0669 91.2311C59.0464 92.0621 59.6462 92.7403 60.3694 92.7403C61.0964 92.7403 61.686 92.0634 61.686 91.2311C61.686 91.1437 61.6783 91.0538 61.6654 90.9664L60.801 88.1123Z" fill="black"/>
<path d="M61.7844 77.842C61.4157 77.833 61.092 78.1169 61.092 78.4637C61.0818 78.8105 61.4157 79.1175 61.8049 79.1175C62.153 79.1175 62.4626 78.8413 62.4703 78.5215C62.4896 78.1734 62.1607 77.8497 61.7844 77.842Z" fill="black"/>
<path d="M45.9331 9.38867H41.6172V10.6231H45.9331V9.38867Z" fill="black"/>
<path d="M38.9988 9.38867H34.6816V10.6231H38.9988V9.38867Z" fill="black"/>
<path d="M52.8731 9.38867H48.5547V10.6231H52.8731V9.38867Z" fill="black"/>
<path d="M87.5535 9.38867H83.2363V10.6231H87.5535V9.38867Z" fill="black"/>
<path d="M18.1902 9.38867H13.873V10.6231H18.1902V9.38867Z" fill="black"/>
<path d="M25.1245 9.38867H20.8086V10.6231H25.1245V9.38867Z" fill="black"/>
<path d="M80.616 9.38867H76.2988V10.6231H80.616V9.38867Z" fill="black"/>
<path d="M4.31718 9.38867H0V10.6231H4.31718V9.38867Z" fill="black"/>
<path d="M73.6766 9.38867H69.3594V10.6231H73.6766V9.38867Z" fill="black"/>
<path d="M66.743 9.38867H62.4258V10.6231H66.743V9.38867Z" fill="black"/>
<path d="M32.0613 9.38867H27.7441V10.6231H32.0613V9.38867Z" fill="black"/>
<path d="M101.425 9.38867H97.1074V10.6231H101.425V9.38867Z" fill="black"/>
<path d="M59.8068 9.38867H55.4922V10.6231H59.8068V9.38867Z" fill="black"/>
<path d="M80.616 96.1714H76.2988V97.4058H80.616V96.1714Z" fill="black"/>
<path d="M38.9988 96.1714H34.6816V97.4058H38.9988V96.1714Z" fill="black"/>
<path d="M101.425 96.1714H97.1074V97.4058H101.425V96.1714Z" fill="black"/>
<path d="M87.5535 96.1714H83.2363V97.4058H87.5535V96.1714Z" fill="black"/>
<path d="M66.743 96.1714H62.4258V97.4058H66.743V96.1714Z" fill="black"/>
<path d="M52.8731 96.1714H48.5547V97.4058H52.8731V96.1714Z" fill="black"/>
<path d="M25.1245 96.1714H20.8086V97.4058H25.1245V96.1714Z" fill="black"/>
<path d="M18.1902 96.1714H13.873V97.4058H18.1902V96.1714Z" fill="black"/>
<path d="M45.9331 96.1714H41.6172V97.4058H45.9331V96.1714Z" fill="black"/>
<path d="M32.0613 96.1714H27.7441V97.4058H32.0613V96.1714Z" fill="black"/>
<path d="M11.2534 96.1714H6.9375V97.4058H11.2534V96.1714Z" fill="black"/>
<path d="M59.8068 96.1714H55.4922V97.4058H59.8068V96.1714Z" fill="black"/>
<path d="M73.6766 96.1714H69.3594V97.4058H73.6766V96.1714Z" fill="black"/>
<path d="M4.31718 96.1714H0V97.4058H4.31718V96.1714Z" fill="black"/>
<path d="M82.4981 13.8721H81.2637V18.1892H82.4981V13.8721Z" fill="black"/>
<path d="M82.4981 20.8101H81.2637V25.1259H82.4981V20.8101Z" fill="black"/>
<path d="M82.4981 6.9375H81.2637V11.2534H82.4981V6.9375Z" fill="black"/>
<path d="M82.4981 0H81.2637V4.31718H82.4981V0Z" fill="black"/>
<path d="M82.4981 27.7451H81.2637V32.0623H82.4981V27.7451Z" fill="black"/>
<path d="M82.4981 69.3623H81.2637V73.6795H82.4981V69.3623Z" fill="black"/>
<path d="M82.4981 90.1729H81.2637V94.4887H82.4981V90.1729Z" fill="black"/>
<path d="M82.4981 97.1079H81.2637V101.425H82.4981V97.1079Z" fill="black"/>
<path d="M82.4981 76.2998H81.2637V80.6157H82.4981V76.2998Z" fill="black"/>
<path d="M82.4981 34.6812H81.2637V38.9983H82.4981V34.6812Z" fill="black"/>
<path d="M82.4981 104.044H81.2637V108.361H82.4981V104.044Z" fill="black"/>
<path d="M82.4981 83.2349H81.2637V87.552H82.4981V83.2349Z" fill="black"/>
<path d="M82.4981 41.6187H81.2637V45.9345H82.4981V41.6187Z" fill="black"/>
<path d="M82.4981 62.4263H81.2637V66.7434H82.4981V62.4263Z" fill="black"/>
<path d="M82.4981 48.5537H81.2637V52.8709H82.4981V48.5537Z" fill="black"/>
<path d="M82.4981 55.4917H81.2637V59.8076H82.4981V55.4917Z" fill="black"/>
<path d="M95.3067 16.1846H94.0723V20.5005H95.3067V16.1846Z" fill="black"/>
<path d="M95.3067 30.0571H94.0723V34.373H95.3067V30.0571Z" fill="black"/>
<path d="M94.0703 13.5657H95.3047V9.24854H94.0703V9.38855H90.1719V10.6229H94.0703V13.5657Z" fill="black"/>
<path d="M95.3067 23.1196H94.0723V27.4368H95.3067V23.1196Z" fill="black"/>
<path d="M95.3067 36.9917H94.0723V41.3089H95.3067V36.9917Z" fill="black"/>
<path d="M95.3067 50.8662H94.0723V55.1821H95.3067V50.8662Z" fill="black"/>
<path d="M95.3067 85.5474H94.0723V89.8633H95.3067V85.5474Z" fill="black"/>
<path d="M95.3067 78.6113H94.0723V82.9285H95.3067V78.6113Z" fill="black"/>
<path d="M94.0703 96.171H90.1719V97.4054H94.4865V96.8004H95.3047V92.4819H94.0703V96.171Z" fill="black"/>
<path d="M95.3067 57.8008H94.0723V62.118H95.3067V57.8008Z" fill="black"/>
<path d="M95.3067 71.6733H94.0723V75.9905H95.3067V71.6733Z" fill="black"/>
<path d="M7.51679 14.4352C7.86489 14.4352 8.1449 14.1539 8.1449 13.8071V10.6228H11.2521V9.38842H8.1449V2.84394C8.1449 2.49584 7.8636 2.21582 7.51679 2.21582C7.16998 2.21582 6.88867 2.49712 6.88867 2.84394V13.8058C6.88867 14.1539 7.16998 14.4352 7.51679 14.4352Z" fill="black"/>
<path d="M89.5228 49.2372H103.682C104.021 49.2372 104.298 48.9598 104.298 48.6207C104.298 48.2815 104.02 48.0041 103.682 48.0041H95.3056V43.9297H94.0712V48.0041H89.5228C89.1837 48.0041 88.9062 48.2815 88.9062 48.6207C88.9062 48.9598 89.1837 49.2372 89.5228 49.2372Z" fill="black"/>
<path d="M103.682 65.8006H95.3056V64.7383H94.0712V65.8006H89.5228C89.1837 65.8006 88.9062 66.078 88.9062 66.4171C88.9062 66.7562 89.185 67.0337 89.5228 67.0337H94.0712V69.0529H95.3056V67.0337H103.682C104.021 67.0337 104.298 66.7562 104.298 66.4171C104.298 66.078 104.021 65.8006 103.682 65.8006Z" fill="black"/>
</svg>
